<?xml version="1.0" encoding="utf-8"?>
<!-- Generator: Adobe Illustrator 21.0.0, SVG Export Plug-In . SVG Version: 6.00 Build 0)  -->
<svg version="1.1" id="Layer_1" xmlns="http://www.w3.org/2000/svg" xmlns:xlink="http://www.w3.org/1999/xlink" x="0px" y="0px"
	 viewBox="0 0 2880 150" style="enable-background:new 0 0 2880 150;" xml:space="preserve">
<style type="text/css">
	.st0{display:none;fill:#64F271;}
	.st1{display:none;fill:#65EFC1;}
	.st2{display:none;fill:#F2CA25;}
	.st3{display:none;fill:none;stroke:#594903;stroke-width:0.5;stroke-miterlimit:10;}
	.st4{display:none;fill:#594903;}
	.st5{display:none;fill:#594903;stroke:#000000;stroke-width:0.5;stroke-miterlimit:10;}
	.st6{display:none;fill:#03FCE3;stroke:#000000;stroke-width:0.5;stroke-miterlimit:10;}
	.st7{display:none;fill:#459B40;stroke:#000000;stroke-width:0.5;stroke-miterlimit:10;}
	.st8{display:none;fill:#9E03F9;stroke:#000000;stroke-width:0.5;stroke-miterlimit:10;}
	.st9{display:none;fill:#0A4DE2;stroke:#000000;stroke-width:0.5;stroke-miterlimit:10;}
	.st10{display:none;fill:#F7E500;stroke:#000000;stroke-width:0.5;stroke-miterlimit:10;}
	.st11{display:none;fill:#F7310B;stroke:#000000;stroke-width:0.5;stroke-miterlimit:10;}
	.st12{display:none;fill:#BF7B28;stroke:#000000;stroke-width:0.5;stroke-miterlimit:10;}
	.st13{display:none;fill:none;stroke:#000000;stroke-miterlimit:10;}
	.st14{display:none;}
	.st15{display:inline;}
	.st16{fill:#FFFFFF;}
	.st17{fill:#F7B763;}
	.st18{fill:none;stroke:#050300;stroke-width:0.1;stroke-miterlimit:10;}
	.st19{fill:#F7B763;stroke:#000000;stroke-width:0.5;stroke-miterlimit:10;}
	.st20{fill:#B26912;}
</style>
<rect class="st0" width="90" height="149.8"/>
<rect x="90" class="st1" width="90" height="149.8"/>
<rect x="180" class="st0" width="90" height="149.8"/>
<rect x="270" class="st1" width="90" height="149.8"/>
<rect x="360" y="0.2" class="st0" width="90" height="149.8"/>
<rect x="450" y="0.2" class="st1" width="90" height="149.8"/>
<rect x="540" y="0.2" class="st0" width="90" height="149.8"/>
<rect x="630" y="0.2" class="st1" width="90" height="149.8"/>
<rect x="720" class="st0" width="90" height="149.8"/>
<rect x="810" class="st1" width="90" height="149.8"/>
<rect x="900" class="st0" width="90" height="149.8"/>
<rect x="990" class="st1" width="90" height="149.8"/>
<rect x="1080" y="0.2" class="st0" width="90" height="149.8"/>
<rect x="1170" y="0.2" class="st1" width="90" height="149.8"/>
<rect x="1260" y="0.2" class="st0" width="90" height="149.8"/>
<rect x="1350" y="0.2" class="st1" width="90" height="149.8"/>
<rect x="1440" class="st0" width="90" height="149.8"/>
<rect x="1530" class="st1" width="90" height="149.8"/>
<rect x="1620" class="st0" width="90" height="149.8"/>
<rect x="1710" class="st1" width="90" height="149.8"/>
<rect x="1800" y="0.2" class="st0" width="90" height="149.8"/>
<rect x="1890" y="0.2" class="st1" width="90" height="149.8"/>
<rect x="1980" y="0.2" class="st0" width="90" height="149.8"/>
<rect x="2070" y="0.2" class="st1" width="90" height="149.8"/>
<rect x="2160" class="st0" width="90" height="149.8"/>
<rect x="2250" class="st1" width="90" height="149.8"/>
<rect x="2340" class="st0" width="90" height="149.8"/>
<rect x="2430" class="st1" width="90" height="149.8"/>
<rect x="2520" y="0.2" class="st0" width="90" height="149.8"/>
<rect x="2610" y="0.2" class="st1" width="90" height="149.8"/>
<rect x="2700" y="0.2" class="st0" width="90" height="149.8"/>
<rect x="2790" y="0.2" class="st1" width="90" height="149.8"/>
<g id="dude">
	<path id="fire1" class="st2" d="M44.6,106c0,0-0.8-0.9-1-3.2s0.5-4,0.5-4s0.2,1.4,0.8,2.4s0.3-1.9,0.3-1.9s0.2,1.2,0.7,1.9
		c0.5,0.7-0.4-6.9-0.4-6.9s1.7,5.2,1.7,7.8s-0.8,4-0.8,4S44.6,106,44.6,106z"/>
	<path id="fire2" class="st2" d="M44.6,106c0,0-0.8-0.9-1-3.2s1.6-5.6,1.6-5.6s-0.9,3-0.3,4c0.6,1,1.1-1.8,1.1-1.8s-0.1,1.2,0.3,1.9
		s0.4,0.1,0.4,0.1s0.5-1.8,0.5,0.7s-0.8,4-0.8,4H44.6z"/>
	<path id="fire3" class="st2" d="M44.6,106c0,0-0.8-0.9-1-3.2s0.9-0.7,0.9-0.7s0,1.5,0.6,1.2s-0.3-1.8-0.3-1.8s0.5-0.4,1,0.3
		S44.2,98,44.5,98s2.6,1.4,2.6,4s-0.8,4-0.8,4L44.6,106L44.6,106z"/>
	<path id="fire4" class="st2" d="M44.6,106c0,0-0.8-0.9-1-3.2c-0.2-2.3,1.5,0.9,1.5,0.9s0.7-1.6-0.2-2.5c-0.8-0.9-0.4-5.5-0.4-5.5
		s1.4,4.7,1.9,5.4s-0.1-2.2-0.1-2.2s1,0.7,1,3.2s-0.8,4-0.8,4H44.6z"/>
	<rect id="firekeeper1" x="42.1" y="90.7" class="st3" width="6.3" height="16.7"/>
	<rect id="firekeeper2" x="43.3" y="105.7" class="st4" width="3.9" height="3.2"/>
	<polygon id="balken" class="st3" points="50.3,112.7 40,112.7 38.1,91.2 52.7,91.2 	"/>
	<polygon id="basket" class="st5" points="28,112.7 62.5,112.7 59,135.7 32.7,135.7 	"/>
	<path id="zeil" class="st6" d="M36.2,91.2l9.1-1l8.6,1c0,0,20.2-20.8,23.8-37C81.3,38,78.5,34,76.8,29.7C75.2,25.3,66.7,11,45.2,11
		S13.3,28.8,13.3,28.8s-4.2,10.7-1,25.2S36.2,91.2,36.2,91.2z"/>
	<path id="zeil_x5F_g1" class="st7" d="M36.2,91.2l9.1-1l7-0.3c0,0,14.5-78.9-7-78.9s-31,14.9-31.9,17.8s-4.2,10.7-1,25.2
		S36.2,91.2,36.2,91.2z"/>
	<path id="zeil_x5F_n1" class="st8" d="M38.1,91.2l7.5-1l7.1,1c0,0,15.9-21,19.6-37c5.3-22.8-2-30.3-2-30.3S63.2,11,45.5,11
		S21,22.8,21,22.8s-6.5,6.5-2.5,31.2C20.8,68.5,38.1,91.2,38.1,91.2z"/>
	<path id="zeil_x5F_g2" class="st9" d="M38.1,91.2l7.5-1c0,0,17.7-79.2,0-79.2S21,22.8,21,22.8s-6.5,6.5-2.5,31.2
		C20.8,68.5,38.1,91.2,38.1,91.2z"/>
	<path id="zeil_x5F_n2" class="st10" d="M41.4,90.3l4.2-1l3.9,1c0,0,8.8-21,10.9-37c3-22.8-1.1-30.3-1.1-30.3s-3.9-11.8-13.7-11.8
		S31.9,22,31.9,22s-3.6,6.5-1.4,31.2C31.8,67.7,41.4,90.3,41.4,90.3z"/>
	<path id="zeil_x5F_n3" class="st11" d="M41.4,90.3l4.2-1l0-78.2c0,0-11.7,1.2-14.9,10.8c-3.5,10.6-2.3,6.5-0.1,31.2
		C31.8,67.7,41.4,90.3,41.4,90.3z"/>
	<path id="connect" class="st5" d="M36.7,91.2h16.6c0,0-2.5-3.3-7.8-3.3S36.7,91.2,36.7,91.2z"/>
	<path id="bag" class="st12" d="M43.5,112.7h3.2c0,0-0.4,1.9-0.5,3.5s3,7.8,3,10.3s-3.9,3.7-3.9,3.7s-3.5-1-3.5-3.2
		c0-2.2,3.4-8.4,3-10.6C44.4,114.3,43.5,112.7,43.5,112.7z"/>
	<path id="bag_1_" class="st12" d="M59.1,112.7h3.2c0,0-0.4,1.9-0.5,3.5s3,7.8,3,10.3s-3.9,3.7-3.9,3.7s-3.5-1-3.5-3.2
		c0-2.2,3.4-8.4,3-10.6C60,114.3,59.1,112.7,59.1,112.7z"/>
	<path id="bag_2_" class="st12" d="M27.9,112.7h3.2c0,0-0.4,1.9-0.5,3.5s3,7.8,3,10.3s-3.9,3.7-3.9,3.7s-3.5-1-3.5-3.2
		c0-2.2,3.4-8.4,3-10.6C28.8,114.3,27.9,112.7,27.9,112.7z"/>
	<rect class="st13" width="90" height="150"/>
	<g id="eyes_x5F_2_4_" class="st14">
		<g id="eye_37_" class="st15">
			
				<ellipse transform="matrix(0.1015 -0.9948 0.9948 0.1015 50.6459 309.6532)" class="st16" cx="196.8" cy="126.8" rx="1.4" ry="1.4"/>
			<ellipse transform="matrix(0.2047 -0.9788 0.9788 0.2047 31.4908 293.0051)" cx="196.1" cy="127.1" rx="0.7" ry="0.7"/>
			<path class="st17" d="M198.2,126.7c0,0.8-3.1,0-2.7-0.7c0.3-0.6,0.9-0.7,1.2-0.7C197.6,125.2,198.2,125.9,198.2,126.7z"/>
		</g>
		<g id="eye_36_" class="st15">
			
				<ellipse transform="matrix(0.1015 -0.9948 0.9948 0.1015 53.3413 312.6378)" class="st16" cx="199.8" cy="126.8" rx="1.4" ry="1.4"/>
			<ellipse transform="matrix(0.2047 -0.9788 0.9788 0.2047 33.8766 295.9414)" cx="199.1" cy="127.1" rx="0.7" ry="0.7"/>
			<path class="st17" d="M201.2,126.7c0,0.8-3.1,0-2.7-0.7c0.3-0.6,0.9-0.7,1.2-0.7C200.6,125.2,201.2,125.9,201.2,126.7z"/>
		</g>
	</g>
	<g id="eyes_x5F_3_4_" class="st14">
		<g id="eye_35_" class="st15">
			
				<ellipse transform="matrix(0.1015 -0.9948 0.9948 0.1015 50.6459 309.6532)" class="st16" cx="196.8" cy="126.8" rx="1.4" ry="1.4"/>
			<ellipse transform="matrix(0.2047 -0.9788 0.9788 0.2047 31.4908 293.0051)" cx="196.1" cy="127.1" rx="0.7" ry="0.7"/>
			<path class="st17" d="M198.3,127.3c-0.2,1.1-3.2,0-2.8-1c0.3-0.8,1-1,1.3-1C197.5,125.2,198.5,126.2,198.3,127.3z"/>
		</g>
		<g id="eye_34_" class="st15">
			
				<ellipse transform="matrix(0.1015 -0.9948 0.9948 0.1015 53.3413 312.6378)" class="st16" cx="199.8" cy="126.8" rx="1.4" ry="1.4"/>
			<ellipse transform="matrix(0.2047 -0.9788 0.9788 0.2047 33.8766 295.9414)" cx="199.1" cy="127.1" rx="0.7" ry="0.7"/>
			<path class="st17" d="M201.3,127.3c-0.2,1.1-3.2,0-2.8-1c0.3-0.8,1-1,1.3-1C200.5,125.2,201.5,126.2,201.3,127.3z"/>
		</g>
	</g>
	<g id="eyes_x5F_4_4_" class="st14">
		<g id="eye_33_" class="st15">
			
				<ellipse transform="matrix(0.1015 -0.9948 0.9948 0.1015 50.6459 309.6532)" class="st17" cx="196.8" cy="126.8" rx="1.4" ry="1.4"/>
			<path class="st18" d="M195.6,126.1c0,0,0.1,0.5,1,1c0.9,0.5,1.4,0.4,1.4,0.4"/>
		</g>
		<g id="eye_32_" class="st15">
			
				<ellipse transform="matrix(0.1015 -0.9948 0.9948 0.1015 53.3413 312.6378)" class="st17" cx="199.8" cy="126.8" rx="1.4" ry="1.4"/>
			<path class="st18" d="M198.5,126.3c0,0,0.2,0.5,1.2,0.8s1.4,0.1,1.4,0.1"/>
		</g>
	</g>
	<path id="fire1_4_" class="st2" d="M211.6,123c0,0-0.8-0.9-1-3.2c-0.2-2.3,0.4-4,0.4-4s0.2,1.4,0.8,2.4s0.3-1.9,0.3-1.9
		s0.2,1.2,0.7,1.9c0.5,0.7-0.4-6.9-0.4-6.9s1.7,5.2,1.7,7.8s-0.8,4-0.8,4S211.6,123,211.6,123z"/>
	<path id="fire2_4_" class="st2" d="M211.6,123c0,0-0.8-0.9-1-3.2c-0.2-2.3,1.6-5.6,1.6-5.6s-0.9,3-0.3,4s1.1-1.8,1.1-1.8
		s-0.1,1.2,0.3,1.9s0.4,0.1,0.4,0.1s0.5-1.8,0.5,0.7s-0.8,4-0.8,4H211.6z"/>
	<path id="fire3_4_" class="st2" d="M211.6,123c0,0-0.8-0.9-1-3.2c-0.2-2.3,0.9-0.7,0.9-0.7s0,1.5,0.6,1.2s-0.3-1.8-0.3-1.8
		s0.5-0.4,1,0.3c0.5,0.7-1.4-3.8-1.1-3.8c0.3,0,2.6,1.4,2.6,4s-0.8,4-0.8,4L211.6,123L211.6,123z"/>
	<path id="fire4_4_" class="st2" d="M211.6,123c0,0-0.8-0.9-1-3.2c-0.2-2.3,1.5,0.9,1.5,0.9s0.7-1.6-0.2-2.5
		c-0.8-0.9-0.4-5.5-0.4-5.5s1.4,4.7,1.9,5.4s-0.1-2.2-0.1-2.2s1,0.7,1,3.2s-0.8,4-0.8,4H211.6z"/>
	<rect id="firekeeper1_4_" x="209.1" y="107.7" class="st3" width="6.3" height="16.7"/>
	<rect id="firekeeper2_4_" x="210.3" y="122.7" class="st4" width="3.9" height="3.2"/>
	<polygon id="balken_4_" class="st3" points="217.3,129.7 207,129.7 205.1,108.2 219.7,108.2 	"/>
	<polygon id="basket_4_" class="st5" points="195,129.7 229.5,129.7 226,152.7 199.7,152.7 	"/>
	<path id="zeil_4_" class="st6" d="M203.2,108.2l9.1-1l8.6,1c0,0,20.2-20.8,23.8-37c3.7-16.2,0.8-20.2-0.8-24.5
		c-1.7-4.3-10.1-18.7-31.6-18.7s-31.9,17.8-31.9,17.8s-4.2,10.7-1,25.2S203.2,108.2,203.2,108.2z"/>
	<path id="zeil_x5F_g1_4_" class="st7" d="M203.2,108.2l9.1-1l7-0.3c0,0,14.5-78.9-7.1-78.9s-31,14.9-31.9,17.8s-4.2,10.7-1,25.2
		C182.5,85.5,203.2,108.2,203.2,108.2z"/>
	<path id="zeil_x5F_n1_4_" class="st8" d="M205.1,108.2l7.5-1l7.1,1c0,0,15.9-21,19.6-37c5.3-22.8-2-30.3-2-30.3s-7-12.8-24.7-12.8
		S188,39.8,188,39.8s-6.5,6.5-2.5,31.2C187.8,85.5,205.1,108.2,205.1,108.2z"/>
	<path id="zeil_x5F_g2_4_" class="st9" d="M205.1,108.2l7.5-1c0,0,17.7-79.2,0-79.2S188,39.8,188,39.8s-6.5,6.5-2.5,31.2
		C187.8,85.5,205.1,108.2,205.1,108.2z"/>
	<path id="zeil_x5F_n2_4_" class="st10" d="M208.4,107.3l4.2-1l3.9,1c0,0,8.8-21,10.9-37c3-22.8-1.1-30.3-1.1-30.3
		s-3.9-11.8-13.7-11.8S198.9,39,198.9,39s-3.6,6.5-1.4,31.2C198.8,84.7,208.4,107.3,208.4,107.3z"/>
	<path id="zeil_x5F_n3_4_" class="st11" d="M208.4,107.3l4.2-1l0-78.2c0,0-11.7,1.2-14.9,10.8c-3.5,10.6-2.3,6.5-0.1,31.2
		C198.8,84.7,208.4,107.3,208.4,107.3z"/>
	<path id="connect_4_" class="st5" d="M203.7,108.2h16.6c0,0-2.5-3.3-7.8-3.3C207.4,104.9,203.7,108.2,203.7,108.2z"/>
	<path id="bag_14_" class="st12" d="M210.5,129.7h3.2c0,0-0.4,1.9-0.5,3.5s3,7.8,3,10.3s-3.9,3.7-3.9,3.7s-3.5-1-3.5-3.2
		c0-2.2,3.4-8.4,3-10.6C211.4,131.3,210.5,129.7,210.5,129.7z"/>
	<path id="bag_13_" class="st12" d="M226.1,129.7h3.2c0,0-0.4,1.9-0.5,3.5s3,7.8,3,10.3s-3.9,3.7-3.9,3.7s-3.5-1-3.5-3.2
		c0-2.2,3.4-8.4,3-10.6C227,131.3,226.1,129.7,226.1,129.7z"/>
	<path id="bag_12_" class="st12" d="M194.9,129.7h3.2c0,0-0.4,1.9-0.5,3.5c-0.1,1.6,3,7.8,3,10.3s-3.9,3.7-3.9,3.7s-3.5-1-3.5-3.2
		c0-2.2,3.4-8.4,3-10.6C195.8,131.3,194.9,129.7,194.9,129.7z"/>
	<rect x="360" class="st13" width="90" height="150"/>
	<rect x="2790" class="st13" width="90" height="150"/>
	<rect x="450" class="st13" width="90" height="150"/>
	<rect x="540" class="st13" width="90" height="150"/>
	<rect x="630" class="st13" width="90" height="150"/>
	<rect x="720" class="st13" width="90" height="150"/>
	<rect x="810" class="st13" width="90" height="150"/>
	<rect x="900.3" class="st13" width="90" height="150"/>
	<rect x="990" class="st13" width="90" height="150"/>
	<rect x="1080" class="st13" width="90" height="150"/>
	<rect x="1170" class="st13" width="90" height="150"/>
	<rect x="1260" class="st13" width="90" height="150"/>
	<rect x="1350" class="st13" width="90" height="150"/>
	<rect x="1440" class="st13" width="90" height="150"/>
	<rect x="1530" class="st13" width="90" height="150"/>
	<rect x="1620" class="st13" width="90" height="150"/>
	<rect x="1710" class="st13" width="90" height="150"/>
	<rect x="1800" class="st13" width="90" height="150"/>
	<rect x="1890" class="st13" width="90" height="150"/>
	<rect x="1979.7" class="st13" width="90" height="150"/>
	<rect x="2069.7" class="st13" width="90" height="150"/>
	<rect x="2160" class="st13" width="90" height="150"/>
	<rect x="2249.8" class="st13" width="90" height="150"/>
	<rect x="2340" class="st13" width="90" height="150"/>
	<rect x="2430" class="st13" width="90" height="150"/>
	<rect x="2520" class="st13" width="90" height="150"/>
	<rect x="2610" class="st13" width="90" height="150"/>
	<g>
		<g>
			<circle class="st19" cx="33.5" cy="110.8" r="5.1"/>
			<g id="eyes_x5F_1">
				<g id="eye">
					
						<ellipse transform="matrix(0.1015 -0.9948 0.9948 0.1015 -82.4875 128.2314)" class="st16" cx="29.7" cy="109.8" rx="1.4" ry="1.4"/>
					<ellipse transform="matrix(0.2047 -0.9788 0.9788 0.2047 -84.6753 116.0282)" cx="29.1" cy="110.1" rx="0.7" ry="0.7"/>
				</g>
				<g id="eye_1_">
					
						<ellipse transform="matrix(0.1015 -0.9948 0.9948 0.1015 -79.7921 131.216)" class="st16" cx="32.7" cy="109.8" rx="1.4" ry="1.4"/>
					<ellipse transform="matrix(0.2047 -0.9788 0.9788 0.2047 -82.2896 118.9644)" cx="32.1" cy="110.1" rx="0.7" ry="0.7"/>
				</g>
			</g>
			<g id="eyes_x5F_2" class="st14">
				<g id="eye_3_" class="st15">
					
						<ellipse transform="matrix(0.1015 -0.9948 0.9948 0.1015 -82.4875 128.2314)" class="st16" cx="29.7" cy="109.8" rx="1.4" ry="1.4"/>
					<ellipse transform="matrix(0.2047 -0.9788 0.9788 0.2047 -84.6753 116.0282)" cx="29.1" cy="110.1" rx="0.7" ry="0.7"/>
					<path class="st17" d="M31.2,109.7c0,0.8-3.1,0-2.7-0.7c0.3-0.6,0.9-0.7,1.2-0.7C30.6,108.2,31.2,108.9,31.2,109.7z"/>
				</g>
				<g id="eye_2_" class="st15">
					
						<ellipse transform="matrix(0.1015 -0.9948 0.9948 0.1015 -79.7921 131.216)" class="st16" cx="32.7" cy="109.8" rx="1.4" ry="1.4"/>
					<ellipse transform="matrix(0.2047 -0.9788 0.9788 0.2047 -82.2896 118.9644)" cx="32.1" cy="110.1" rx="0.7" ry="0.7"/>
					<path class="st17" d="M34.2,109.7c0,0.8-3.1,0-2.7-0.7c0.3-0.6,0.9-0.7,1.2-0.7C33.6,108.2,34.2,108.9,34.2,109.7z"/>
				</g>
			</g>
			<g id="eyes_x5F_3" class="st14">
				<g id="eye_5_" class="st15">
					
						<ellipse transform="matrix(0.1015 -0.9948 0.9948 0.1015 -82.4875 128.2314)" class="st16" cx="29.7" cy="109.8" rx="1.4" ry="1.4"/>
					<ellipse transform="matrix(0.2047 -0.9788 0.9788 0.2047 -84.6753 116.0282)" cx="29.1" cy="110.1" rx="0.7" ry="0.7"/>
					<path class="st17" d="M31.3,110.3c-0.2,1.1-3.2,0-2.8-1c0.3-0.8,1-1,1.3-1C30.5,108.2,31.5,109.2,31.3,110.3z"/>
				</g>
				<g id="eye_4_" class="st15">
					
						<ellipse transform="matrix(0.1015 -0.9948 0.9948 0.1015 -79.7921 131.216)" class="st16" cx="32.7" cy="109.8" rx="1.4" ry="1.4"/>
					<ellipse transform="matrix(0.2047 -0.9788 0.9788 0.2047 -82.2896 118.9644)" cx="32.1" cy="110.1" rx="0.7" ry="0.7"/>
					<path class="st17" d="M34.3,110.3c-0.2,1.1-3.2,0-2.8-1c0.3-0.8,1-1,1.3-1C33.5,108.2,34.5,109.2,34.3,110.3z"/>
				</g>
			</g>
			<g id="eyes_x5F_4" class="st14">
				<g id="eye_7_" class="st15">
					
						<ellipse transform="matrix(0.1015 -0.9948 0.9948 0.1015 -82.4875 128.2314)" class="st17" cx="29.7" cy="109.8" rx="1.4" ry="1.4"/>
					<path class="st18" d="M28.6,109.1c0,0,0.1,0.5,1,1s1.4,0.4,1.4,0.4"/>
				</g>
				<g id="eye_8_" class="st15">
					
						<ellipse transform="matrix(0.1015 -0.9948 0.9948 0.1015 -79.7921 131.216)" class="st17" cx="32.7" cy="109.8" rx="1.4" ry="1.4"/>
					<path class="st18" d="M31.5,109.3c0,0,0.2,0.5,1.2,0.8s1.4,0.1,1.4,0.1"/>
				</g>
			</g>
			<ellipse id="nose" class="st20" cx="31" cy="111.9" rx="0.7" ry="0.9"/>
			<g id="hair">
				<ellipse cx="33.8" cy="106.5" rx="3.6" ry="1.1"/>
				<ellipse transform="matrix(0.3503 -0.9366 0.9366 0.3503 -77.2996 103.1962)" cx="35.7" cy="107.3" rx="1.1" ry="3.6"/>
				<ellipse transform="matrix(0.7517 -0.6595 0.6595 0.7517 -62.5939 51.5845)" cx="37.2" cy="108.9" rx="1.1" ry="3.6"/>
				<ellipse transform="matrix(0.9846 -0.1747 0.1747 0.9846 -18.9561 8.3664)" cx="38" cy="111.9" rx="1.1" ry="2.1"/>
			</g>
		</g>
		<g>
			<circle class="st19" cx="123.5" cy="110.8" r="5.1"/>
			<g id="eyes_x5F_1_1_" class="st14">
				<g id="eye_15_" class="st15">
					
						<ellipse transform="matrix(0.1015 -0.9948 0.9948 0.1015 -1.624 217.772)" class="st16" cx="119.7" cy="109.8" rx="1.4" ry="1.4"/>
					<ellipse transform="matrix(0.2047 -0.9788 0.9788 0.2047 -13.1035 204.1191)" cx="119.1" cy="110.1" rx="0.7" ry="0.7"/>
				</g>
				<g id="eye_14_" class="st15">
					
						<ellipse transform="matrix(0.1015 -0.9948 0.9948 0.1015 1.0714 220.7566)" class="st16" cx="122.7" cy="109.8" rx="1.4" ry="1.4"/>
					<ellipse transform="matrix(0.2047 -0.9788 0.9788 0.2047 -10.7177 207.0556)" cx="122.1" cy="110.1" rx="0.7" ry="0.7"/>
				</g>
			</g>
			<g id="eyes_x5F_2_1_">
				<g id="eye_13_">
					
						<ellipse transform="matrix(0.1015 -0.9948 0.9948 0.1015 -1.624 217.772)" class="st16" cx="119.7" cy="109.8" rx="1.4" ry="1.4"/>
					<ellipse transform="matrix(0.2047 -0.9788 0.9788 0.2047 -13.1035 204.1191)" cx="119.1" cy="110.1" rx="0.7" ry="0.7"/>
					<path class="st17" d="M121.2,109.7c0,0.8-3.1,0-2.7-0.7c0.3-0.6,0.9-0.7,1.2-0.7C120.6,108.2,121.2,108.9,121.2,109.7z"/>
				</g>
				<g id="eye_12_">
					
						<ellipse transform="matrix(0.1015 -0.9948 0.9948 0.1015 1.0714 220.7566)" class="st16" cx="122.7" cy="109.8" rx="1.4" ry="1.4"/>
					<ellipse transform="matrix(0.2047 -0.9788 0.9788 0.2047 -10.7177 207.0556)" cx="122.1" cy="110.1" rx="0.7" ry="0.7"/>
					<path class="st17" d="M124.2,109.7c0,0.8-3.1,0-2.7-0.7c0.3-0.6,0.9-0.7,1.2-0.7C123.6,108.2,124.2,108.9,124.2,109.7z"/>
				</g>
			</g>
			<g id="eyes_x5F_3_1_" class="st14">
				<g id="eye_11_" class="st15">
					
						<ellipse transform="matrix(0.1015 -0.9948 0.9948 0.1015 -1.624 217.772)" class="st16" cx="119.7" cy="109.8" rx="1.4" ry="1.4"/>
					<ellipse transform="matrix(0.2047 -0.9788 0.9788 0.2047 -13.1035 204.1191)" cx="119.1" cy="110.1" rx="0.7" ry="0.7"/>
					<path class="st17" d="M121.3,110.3c-0.2,1.1-3.2,0-2.8-1c0.3-0.8,1-1,1.3-1C120.5,108.2,121.5,109.2,121.3,110.3z"/>
				</g>
				<g id="eye_10_" class="st15">
					
						<ellipse transform="matrix(0.1015 -0.9948 0.9948 0.1015 1.0714 220.7566)" class="st16" cx="122.7" cy="109.8" rx="1.4" ry="1.4"/>
					<ellipse transform="matrix(0.2047 -0.9788 0.9788 0.2047 -10.7177 207.0556)" cx="122.1" cy="110.1" rx="0.7" ry="0.7"/>
					<path class="st17" d="M124.3,110.3c-0.2,1.1-3.2,0-2.8-1c0.3-0.8,1-1,1.3-1C123.5,108.2,124.5,109.2,124.3,110.3z"/>
				</g>
			</g>
			<g id="eyes_x5F_4_1_" class="st14">
				<g id="eye_9_" class="st15">
					
						<ellipse transform="matrix(0.1015 -0.9948 0.9948 0.1015 -1.624 217.772)" class="st17" cx="119.7" cy="109.8" rx="1.4" ry="1.4"/>
					<path class="st18" d="M118.6,109.1c0,0,0.1,0.5,1,1c0.9,0.5,1.4,0.4,1.4,0.4"/>
				</g>
				<g id="eye_6_" class="st15">
					
						<ellipse transform="matrix(0.1015 -0.9948 0.9948 0.1015 1.0714 220.7566)" class="st17" cx="122.7" cy="109.8" rx="1.4" ry="1.4"/>
					<path class="st18" d="M121.5,109.3c0,0,0.2,0.5,1.2,0.8s1.4,0.1,1.4,0.1"/>
				</g>
			</g>
			<ellipse id="nose_1_" class="st20" cx="121" cy="111.9" rx="0.7" ry="0.9"/>
			<g id="hair_1_">
				<ellipse cx="123.8" cy="106.5" rx="3.6" ry="1.1"/>
				<ellipse transform="matrix(0.3503 -0.9366 0.9366 0.3503 -18.8182 187.496)" cx="125.7" cy="107.3" rx="1.1" ry="3.6"/>
				<ellipse transform="matrix(0.7517 -0.6595 0.6595 0.7517 -40.2483 110.9415)" cx="127.2" cy="108.9" rx="1.1" ry="3.6"/>
				<ellipse transform="matrix(0.9846 -0.1747 0.1747 0.9846 -17.5713 24.0893)" cx="128" cy="111.8" rx="1.1" ry="2.1"/>
			</g>
		</g>
		<g>
			<circle class="st19" cx="213.5" cy="110.8" r="5.1"/>
			<g id="eyes_x5F_1_2_" class="st14">
				<g id="eye_23_" class="st15">
					
						<ellipse transform="matrix(0.1015 -0.9948 0.9948 0.1015 79.2393 307.3127)" class="st16" cx="209.8" cy="109.8" rx="1.4" ry="1.4"/>
					<ellipse transform="matrix(0.2047 -0.9788 0.9788 0.2047 58.4684 292.2103)" cx="209.1" cy="110.1" rx="0.7" ry="0.7"/>
				</g>
				<g id="eye_22_" class="st15">
					
						<ellipse transform="matrix(0.1015 -0.9948 0.9948 0.1015 81.9347 310.2973)" class="st16" cx="212.8" cy="109.8" rx="1.4" ry="1.4"/>
					<ellipse transform="matrix(0.2047 -0.9788 0.9788 0.2047 60.8541 295.1465)" cx="212.1" cy="110.1" rx="0.7" ry="0.7"/>
				</g>
			</g>
			<g id="eyes_x5F_2_2_" class="st14">
				<g id="eye_21_" class="st15">
					
						<ellipse transform="matrix(0.1015 -0.9948 0.9948 0.1015 79.2393 307.3127)" class="st16" cx="209.8" cy="109.8" rx="1.4" ry="1.4"/>
					<ellipse transform="matrix(0.2047 -0.9788 0.9788 0.2047 58.4684 292.2103)" cx="209.1" cy="110.1" rx="0.7" ry="0.7"/>
					<path class="st17" d="M211.2,109.7c0,0.8-3.1,0-2.7-0.7c0.3-0.6,0.9-0.7,1.2-0.7C210.6,108.2,211.2,108.9,211.2,109.7z"/>
				</g>
				<g id="eye_20_" class="st15">
					
						<ellipse transform="matrix(0.1015 -0.9948 0.9948 0.1015 81.9347 310.2973)" class="st16" cx="212.8" cy="109.8" rx="1.4" ry="1.4"/>
					<ellipse transform="matrix(0.2047 -0.9788 0.9788 0.2047 60.8541 295.1465)" cx="212.1" cy="110.1" rx="0.7" ry="0.7"/>
					<path class="st17" d="M214.2,109.7c0,0.8-3.1,0-2.7-0.7c0.3-0.6,0.9-0.7,1.2-0.7C213.6,108.2,214.2,108.9,214.2,109.7z"/>
				</g>
			</g>
			<g id="eyes_x5F_3_2_">
				<g id="eye_19_">
					
						<ellipse transform="matrix(0.1015 -0.9948 0.9948 0.1015 79.2393 307.3127)" class="st16" cx="209.8" cy="109.8" rx="1.4" ry="1.4"/>
					<ellipse transform="matrix(0.2047 -0.9788 0.9788 0.2047 58.4684 292.2103)" cx="209.1" cy="110.1" rx="0.7" ry="0.7"/>
					<path class="st17" d="M211.3,110.3c-0.2,1.1-3.2,0-2.8-1c0.3-0.8,1-1,1.3-1C210.5,108.2,211.5,109.2,211.3,110.3z"/>
				</g>
				<g id="eye_18_">
					
						<ellipse transform="matrix(0.1015 -0.9948 0.9948 0.1015 81.9347 310.2973)" class="st16" cx="212.8" cy="109.8" rx="1.4" ry="1.4"/>
					<ellipse transform="matrix(0.2047 -0.9788 0.9788 0.2047 60.8541 295.1465)" cx="212.1" cy="110.1" rx="0.7" ry="0.7"/>
					<path class="st17" d="M214.3,110.3c-0.2,1.1-3.2,0-2.8-1c0.3-0.8,1-1,1.3-1C213.5,108.2,214.5,109.2,214.3,110.3z"/>
				</g>
			</g>
			<g id="eyes_x5F_4_2_" class="st14">
				<g id="eye_17_" class="st15">
					
						<ellipse transform="matrix(0.1015 -0.9948 0.9948 0.1015 79.2393 307.3127)" class="st17" cx="209.8" cy="109.8" rx="1.4" ry="1.4"/>
					<path class="st18" d="M208.6,109.1c0,0,0.1,0.5,1,1c0.9,0.5,1.4,0.4,1.4,0.4"/>
				</g>
				<g id="eye_16_" class="st15">
					
						<ellipse transform="matrix(0.1015 -0.9948 0.9948 0.1015 81.9347 310.2973)" class="st17" cx="212.8" cy="109.8" rx="1.4" ry="1.4"/>
					<path class="st18" d="M211.5,109.3c0,0,0.2,0.5,1.2,0.8s1.4,0.1,1.4,0.1"/>
				</g>
			</g>
			<ellipse id="nose_2_" class="st20" cx="211" cy="111.9" rx="0.7" ry="0.9"/>
			<g id="hair_2_">
				<ellipse cx="213.8" cy="106.5" rx="3.6" ry="1.1"/>
				<ellipse transform="matrix(0.3503 -0.9366 0.9366 0.3503 39.6633 271.7957)" cx="215.7" cy="107.3" rx="1.1" ry="3.6"/>
				<ellipse transform="matrix(0.7517 -0.6595 0.6595 0.7517 -17.9027 170.2985)" cx="217.2" cy="108.9" rx="1.1" ry="3.6"/>
				<ellipse transform="matrix(0.9846 -0.1747 0.1747 0.9846 -16.1866 39.8122)" cx="218" cy="111.8" rx="1.1" ry="2.1"/>
			</g>
		</g>
		<g>
			<circle class="st19" cx="303.5" cy="110.8" r="5.1"/>
			<g id="eyes_x5F_1_3_" class="st14">
				<g id="eye_31_" class="st15">
					
						<ellipse transform="matrix(0.1015 -0.9948 0.9948 0.1015 160.1027 396.8532)" class="st16" cx="299.8" cy="109.8" rx="1.4" ry="1.4"/>
					<ellipse transform="matrix(0.2047 -0.9788 0.9788 0.2047 130.0403 380.3013)" cx="299.1" cy="110.1" rx="0.7" ry="0.7"/>
				</g>
				<g id="eye_30_" class="st15">
					
						<ellipse transform="matrix(0.1015 -0.9948 0.9948 0.1015 162.7982 399.8379)" class="st16" cx="302.8" cy="109.8" rx="1.4" ry="1.4"/>
					<ellipse transform="matrix(0.2047 -0.9788 0.9788 0.2047 132.426 383.2377)" cx="302.1" cy="110.1" rx="0.7" ry="0.7"/>
				</g>
			</g>
			<g id="eyes_x5F_2_3_" class="st14">
				<g id="eye_29_" class="st15">
					
						<ellipse transform="matrix(0.1015 -0.9948 0.9948 0.1015 160.1027 396.8532)" class="st16" cx="299.8" cy="109.8" rx="1.4" ry="1.4"/>
					<ellipse transform="matrix(0.2047 -0.9788 0.9788 0.2047 130.0403 380.3013)" cx="299.1" cy="110.1" rx="0.7" ry="0.7"/>
					<path class="st17" d="M301.2,109.7c0,0.8-3.1,0-2.7-0.7c0.3-0.6,0.9-0.7,1.2-0.7C300.6,108.2,301.2,108.9,301.2,109.7z"/>
				</g>
				<g id="eye_28_" class="st15">
					
						<ellipse transform="matrix(0.1015 -0.9948 0.9948 0.1015 162.7982 399.8379)" class="st16" cx="302.8" cy="109.8" rx="1.4" ry="1.4"/>
					<ellipse transform="matrix(0.2047 -0.9788 0.9788 0.2047 132.426 383.2377)" cx="302.1" cy="110.1" rx="0.7" ry="0.7"/>
					<path class="st17" d="M304.2,109.7c0,0.8-3.1,0-2.7-0.7c0.3-0.6,0.9-0.7,1.2-0.7C303.6,108.2,304.2,108.9,304.2,109.7z"/>
				</g>
			</g>
			<g id="eyes_x5F_3_3_" class="st14">
				<g id="eye_27_" class="st15">
					
						<ellipse transform="matrix(0.1015 -0.9948 0.9948 0.1015 160.1027 396.8532)" class="st16" cx="299.8" cy="109.8" rx="1.4" ry="1.4"/>
					<ellipse transform="matrix(0.2047 -0.9788 0.9788 0.2047 130.0403 380.3013)" cx="299.1" cy="110.1" rx="0.7" ry="0.7"/>
					<path class="st17" d="M301.3,110.3c-0.2,1.1-3.2,0-2.8-1c0.3-0.8,1-1,1.3-1C300.5,108.2,301.5,109.2,301.3,110.3z"/>
				</g>
				<g id="eye_26_" class="st15">
					
						<ellipse transform="matrix(0.1015 -0.9948 0.9948 0.1015 162.7982 399.8379)" class="st16" cx="302.8" cy="109.8" rx="1.4" ry="1.4"/>
					<ellipse transform="matrix(0.2047 -0.9788 0.9788 0.2047 132.426 383.2377)" cx="302.1" cy="110.1" rx="0.7" ry="0.7"/>
					<path class="st17" d="M304.3,110.3c-0.2,1.1-3.2,0-2.8-1c0.3-0.8,1-1,1.3-1C303.5,108.2,304.5,109.2,304.3,110.3z"/>
				</g>
			</g>
			<g id="eyes_x5F_4_3_">
				<g id="eye_25_">
					
						<ellipse transform="matrix(0.1015 -0.9948 0.9948 0.1015 160.1027 396.8532)" class="st17" cx="299.8" cy="109.8" rx="1.4" ry="1.4"/>
					<path class="st18" d="M298.6,109.1c0,0,0.1,0.5,1,1s1.4,0.4,1.4,0.4"/>
				</g>
				<g id="eye_24_">
					
						<ellipse transform="matrix(0.1015 -0.9948 0.9948 0.1015 162.7982 399.8379)" class="st17" cx="302.8" cy="109.8" rx="1.4" ry="1.4"/>
					<path class="st18" d="M301.5,109.3c0,0,0.2,0.5,1.2,0.8c1,0.4,1.4,0.1,1.4,0.1"/>
				</g>
			</g>
			<ellipse id="nose_3_" class="st20" cx="301" cy="111.9" rx="0.7" ry="0.9"/>
			<g id="hair_3_">
				<ellipse cx="303.8" cy="106.5" rx="3.6" ry="1.1"/>
				<ellipse transform="matrix(0.3503 -0.9366 0.9366 0.3503 98.1448 356.0954)" cx="305.7" cy="107.3" rx="1.1" ry="3.6"/>
				<ellipse transform="matrix(0.7517 -0.6595 0.6595 0.7517 4.4428 229.6555)" cx="307.2" cy="108.9" rx="1.1" ry="3.6"/>
				<ellipse transform="matrix(0.9846 -0.1747 0.1747 0.9846 -14.8019 55.5348)" cx="308" cy="111.8" rx="1.1" ry="2.1"/>
			</g>
		</g>
		<g>
			<circle class="st19" cx="393.5" cy="110.8" r="5.1"/>
			<g id="eyes_x5F_1_4_">
				<g id="eye_39_">
					
						<ellipse transform="matrix(0.1015 -0.9948 0.9948 0.1015 240.966 486.3939)" class="st16" cx="389.8" cy="109.8" rx="1.4" ry="1.4"/>
					<ellipse transform="matrix(0.2047 -0.9788 0.9788 0.2047 201.6121 468.3924)" cx="389" cy="110.1" rx="0.7" ry="0.7"/>
				</g>
				<g id="eye_38_">
					
						<ellipse transform="matrix(0.1015 -0.9948 0.9948 0.1015 243.6616 489.3785)" class="st16" cx="392.8" cy="109.8" rx="1.4" ry="1.4"/>
					<ellipse transform="matrix(0.2047 -0.9788 0.9788 0.2047 203.9979 471.3287)" cx="392" cy="110.1" rx="0.7" ry="0.7"/>
				</g>
			</g>
			<ellipse id="nose_4_" class="st20" cx="391" cy="111.9" rx="0.7" ry="0.9"/>
			<g id="hair_4_">
				<ellipse cx="393.8" cy="106.5" rx="3.6" ry="1.1"/>
				<ellipse transform="matrix(0.3503 -0.9366 0.9366 0.3503 156.6262 440.3952)" cx="395.8" cy="107.3" rx="1.1" ry="3.6"/>
				<ellipse transform="matrix(0.7517 -0.6595 0.6595 0.7517 26.7883 289.0126)" cx="397.2" cy="108.9" rx="1.1" ry="3.6"/>
				<ellipse transform="matrix(0.9846 -0.1747 0.1747 0.9846 -13.4172 71.2576)" cx="398" cy="111.8" rx="1.1" ry="2.1"/>
			</g>
		</g>
		<g>
			<circle class="st19" cx="2823.5" cy="110.8" r="5.1"/>
			<g id="eyes_x5F_1_5_">
				<g id="eye_41_">
					
						<ellipse transform="matrix(0.1015 -0.9948 0.9948 0.1015 2424.2778 2903.9912)" class="st16" cx="2819.8" cy="109.9" rx="1.4" ry="1.4"/>
					<ellipse transform="matrix(0.2047 -0.9788 0.9788 0.2047 2134.0525 2846.8511)" cx="2818.9" cy="110.2" rx="0.7" ry="0.7"/>
				</g>
				<g id="eye_40_">
					
						<ellipse transform="matrix(0.1015 -0.9948 0.9948 0.1015 2426.9734 2906.9758)" class="st16" cx="2822.8" cy="109.9" rx="1.4" ry="1.4"/>
					<ellipse transform="matrix(0.2047 -0.9788 0.9788 0.2047 2136.4382 2849.7874)" cx="2821.9" cy="110.2" rx="0.7" ry="0.7"/>
				</g>
			</g>
			<ellipse id="nose_5_" class="st20" cx="2821" cy="111.9" rx="0.7" ry="0.9"/>
			<g id="hair_5_">
				<ellipse cx="2823.8" cy="106.5" rx="3.6" ry="1.1"/>
				<ellipse transform="matrix(0.3503 -0.9366 0.9366 0.3503 1735.6254 2716.4873)" cx="2825.9" cy="107.2" rx="1.1" ry="3.6"/>
				<ellipse transform="matrix(0.7517 -0.6595 0.6595 0.7517 630.1183 1891.6521)" cx="2827.3" cy="109" rx="1.1" ry="3.6"/>
				<ellipse transform="matrix(0.9846 -0.1747 0.1747 0.9846 23.9706 495.7739)" cx="2828" cy="111.7" rx="1.1" ry="2.1"/>
			</g>
		</g>
		<g>
			<circle class="st19" cx="483.5" cy="110.8" r="5.1"/>
			<g id="eyes_x5F_1_6_">
				<g id="eye_43_">
					
						<ellipse transform="matrix(0.1015 -0.9948 0.9948 0.1015 321.8296 575.9346)" class="st16" cx="479.8" cy="109.8" rx="1.4" ry="1.4"/>
					<ellipse transform="matrix(0.2047 -0.9788 0.9788 0.2047 273.184 556.4834)" cx="479" cy="110.1" rx="0.7" ry="0.7"/>
				</g>
				<g id="eye_42_">
					
						<ellipse transform="matrix(0.1015 -0.9948 0.9948 0.1015 324.525 578.9192)" class="st16" cx="482.8" cy="109.8" rx="1.4" ry="1.4"/>
					<ellipse transform="matrix(0.2047 -0.9788 0.9788 0.2047 275.5696 559.4198)" cx="482" cy="110.1" rx="0.7" ry="0.7"/>
				</g>
			</g>
			<ellipse id="nose_6_" class="st20" cx="481" cy="111.9" rx="0.7" ry="0.9"/>
			<g id="hair_6_">
				<ellipse cx="483.8" cy="106.5" rx="3.6" ry="1.1"/>
				<ellipse transform="matrix(0.3503 -0.9366 0.9366 0.3503 215.1077 524.6948)" cx="485.8" cy="107.3" rx="1.1" ry="3.6"/>
				<ellipse transform="matrix(0.7517 -0.6595 0.6595 0.7517 49.1339 348.3696)" cx="487.2" cy="108.9" rx="1.1" ry="3.6"/>
				<ellipse transform="matrix(0.9846 -0.1747 0.1747 0.9846 -12.0325 86.9805)" cx="488" cy="111.8" rx="1.1" ry="2.1"/>
			</g>
		</g>
		<g>
			<circle class="st19" cx="573.5" cy="110.8" r="5.1"/>
			<g id="eyes_x5F_1_7_">
				<g id="eye_45_">
					
						<ellipse transform="matrix(0.1015 -0.9948 0.9948 0.1015 402.6931 665.4752)" class="st16" cx="569.8" cy="109.8" rx="1.4" ry="1.4"/>
					<ellipse transform="matrix(0.2047 -0.9788 0.9788 0.2047 344.7559 644.5745)" cx="569" cy="110.1" rx="0.7" ry="0.7"/>
				</g>
				<g id="eye_44_">
					
						<ellipse transform="matrix(0.1015 -0.9948 0.9948 0.1015 405.3884 668.4598)" class="st16" cx="572.8" cy="109.8" rx="1.4" ry="1.4"/>
					<ellipse transform="matrix(0.2047 -0.9788 0.9788 0.2047 347.1416 647.5108)" cx="572" cy="110.1" rx="0.7" ry="0.7"/>
				</g>
			</g>
			<ellipse id="nose_7_" class="st20" cx="571" cy="111.9" rx="0.7" ry="0.9"/>
			<g id="hair_7_">
				<ellipse cx="573.8" cy="106.5" rx="3.6" ry="1.1"/>
				<ellipse transform="matrix(0.3503 -0.9366 0.9366 0.3503 273.5891 608.9946)" cx="575.8" cy="107.3" rx="1.1" ry="3.6"/>
				<ellipse transform="matrix(0.7517 -0.6595 0.6595 0.7517 71.4794 407.7266)" cx="577.2" cy="108.9" rx="1.1" ry="3.6"/>
				<ellipse transform="matrix(0.9846 -0.1747 0.1747 0.9846 -10.6477 102.7033)" cx="578" cy="111.8" rx="1.1" ry="2.1"/>
			</g>
		</g>
		<g>
			<circle class="st19" cx="663.5" cy="110.8" r="5.1"/>
			<g id="eyes_x5F_1_8_">
				<g id="eye_47_">
					
						<ellipse transform="matrix(0.1015 -0.9948 0.9948 0.1015 483.5563 755.0158)" class="st16" cx="659.8" cy="109.8" rx="1.4" ry="1.4"/>
					<ellipse transform="matrix(0.2047 -0.9788 0.9788 0.2047 416.3278 732.6655)" cx="659" cy="110.1" rx="0.7" ry="0.7"/>
				</g>
				<g id="eye_46_">
					
						<ellipse transform="matrix(0.1015 -0.9948 0.9948 0.1015 486.2518 758.0005)" class="st16" cx="662.8" cy="109.8" rx="1.4" ry="1.4"/>
					<ellipse transform="matrix(0.2047 -0.9788 0.9788 0.2047 418.7134 735.602)" cx="662" cy="110.1" rx="0.7" ry="0.7"/>
				</g>
			</g>
			<ellipse id="nose_8_" class="st20" cx="661" cy="111.9" rx="0.7" ry="0.9"/>
			<g id="hair_8_">
				<ellipse cx="663.8" cy="106.5" rx="3.6" ry="1.1"/>
				<ellipse transform="matrix(0.3503 -0.9366 0.9366 0.3503 332.0706 693.2942)" cx="665.8" cy="107.3" rx="1.1" ry="3.6"/>
				<ellipse transform="matrix(0.7517 -0.6595 0.6595 0.7517 93.825 467.0836)" cx="667.2" cy="108.9" rx="1.1" ry="3.6"/>
				<ellipse transform="matrix(0.9846 -0.1747 0.1747 0.9846 -9.263 118.4261)" cx="668" cy="111.8" rx="1.1" ry="2.1"/>
			</g>
		</g>
		<g>
			<circle class="st19" cx="753.5" cy="110.8" r="5.1"/>
			<g id="eyes_x5F_1_9_">
				<g id="eye_49_">
					
						<ellipse transform="matrix(0.1015 -0.9948 0.9948 0.1015 564.4197 844.5565)" class="st16" cx="749.8" cy="109.8" rx="1.4" ry="1.4"/>
					<ellipse transform="matrix(0.2047 -0.9788 0.9788 0.2047 487.8997 820.7566)" cx="749" cy="110.1" rx="0.7" ry="0.7"/>
				</g>
				<g id="eye_48_">
					
						<ellipse transform="matrix(0.1015 -0.9948 0.9948 0.1015 567.1151 847.5412)" class="st16" cx="752.8" cy="109.8" rx="1.4" ry="1.4"/>
					<ellipse transform="matrix(0.2047 -0.9788 0.9788 0.2047 490.2854 823.693)" cx="752" cy="110.1" rx="0.7" ry="0.7"/>
				</g>
			</g>
			<ellipse id="nose_9_" class="st20" cx="751" cy="111.9" rx="0.7" ry="0.9"/>
			<g id="hair_9_">
				<ellipse cx="753.8" cy="106.5" rx="3.6" ry="1.1"/>
				<ellipse transform="matrix(0.3503 -0.9366 0.9366 0.3503 390.552 777.594)" cx="755.8" cy="107.3" rx="1.1" ry="3.6"/>
				<ellipse transform="matrix(0.7517 -0.6595 0.6595 0.7517 116.1706 526.4406)" cx="757.2" cy="108.9" rx="1.1" ry="3.6"/>
				<ellipse transform="matrix(0.9846 -0.1747 0.1747 0.9846 -7.8783 134.1489)" cx="758" cy="111.8" rx="1.1" ry="2.1"/>
			</g>
		</g>
		<g>
			<circle class="st19" cx="843.5" cy="110.8" r="5.1"/>
			<g id="eyes_x5F_1_10_">
				<g id="eye_51_">
					
						<ellipse transform="matrix(0.1015 -0.9948 0.9948 0.1015 645.2831 934.0973)" class="st16" cx="839.8" cy="109.8" rx="1.4" ry="1.4"/>
					<ellipse transform="matrix(0.2047 -0.9788 0.9788 0.2047 559.4714 908.8476)" cx="839" cy="110.1" rx="0.7" ry="0.7"/>
				</g>
				<g id="eye_50_">
					
						<ellipse transform="matrix(0.1015 -0.9948 0.9948 0.1015 647.9785 937.0818)" class="st16" cx="842.8" cy="109.8" rx="1.4" ry="1.4"/>
					<ellipse transform="matrix(0.2047 -0.9788 0.9788 0.2047 561.8572 911.784)" cx="842" cy="110.1" rx="0.7" ry="0.7"/>
				</g>
			</g>
			<ellipse id="nose_10_" class="st20" cx="841" cy="111.9" rx="0.7" ry="0.9"/>
			<g id="hair_10_">
				<ellipse cx="843.8" cy="106.5" rx="3.6" ry="1.1"/>
				<ellipse transform="matrix(0.3503 -0.9366 0.9366 0.3503 449.0335 861.8936)" cx="845.8" cy="107.3" rx="1.1" ry="3.6"/>
				<ellipse transform="matrix(0.7517 -0.6595 0.6595 0.7517 138.5161 585.7977)" cx="847.2" cy="108.9" rx="1.1" ry="3.6"/>
				<ellipse transform="matrix(0.9846 -0.1747 0.1747 0.9846 -6.4935 149.8717)" cx="848" cy="111.8" rx="1.1" ry="2.1"/>
			</g>
		</g>
		<g>
			<circle class="st19" cx="933.5" cy="110.8" r="5.1"/>
			<g id="eyes_x5F_1_11_">
				<g id="eye_53_">
					
						<ellipse transform="matrix(0.1015 -0.9948 0.9948 0.1015 726.1465 1023.6378)" class="st16" cx="929.8" cy="109.8" rx="1.4" ry="1.4"/>
					<ellipse transform="matrix(0.2047 -0.9788 0.9788 0.2047 631.0435 996.9388)" cx="929" cy="110.1" rx="0.7" ry="0.7"/>
				</g>
				<g id="eye_52_">
					
						<ellipse transform="matrix(0.1015 -0.9948 0.9948 0.1015 728.842 1026.6224)" class="st16" cx="932.8" cy="109.8" rx="1.4" ry="1.4"/>
					<ellipse transform="matrix(0.2047 -0.9788 0.9788 0.2047 633.4291 999.8751)" cx="932" cy="110.1" rx="0.7" ry="0.7"/>
				</g>
			</g>
			<ellipse id="nose_11_" class="st20" cx="931" cy="111.9" rx="0.7" ry="0.9"/>
			<g id="hair_11_">
				<ellipse cx="933.8" cy="106.5" rx="3.6" ry="1.1"/>
				<ellipse transform="matrix(0.3503 -0.9366 0.9366 0.3503 507.515 946.1934)" cx="935.8" cy="107.3" rx="1.1" ry="3.6"/>
				<ellipse transform="matrix(0.7517 -0.6595 0.6595 0.7517 160.8617 645.1547)" cx="937.2" cy="108.9" rx="1.1" ry="3.6"/>
				<ellipse transform="matrix(0.9846 -0.1747 0.1747 0.9846 -5.1088 165.5946)" cx="938" cy="111.8" rx="1.1" ry="2.1"/>
			</g>
		</g>
		<g>
			<circle class="st19" cx="1023.5" cy="110.8" r="5.1"/>
			<g id="eyes_x5F_1_12_">
				<g id="eye_55_">
					
						<ellipse transform="matrix(0.1015 -0.9948 0.9948 0.1015 807.0099 1113.1785)" class="st16" cx="1019.8" cy="109.8" rx="1.4" ry="1.4"/>
					<ellipse transform="matrix(0.2047 -0.9788 0.9788 0.2047 702.6152 1085.0298)" cx="1019" cy="110.1" rx="0.7" ry="0.7"/>
				</g>
				<g id="eye_54_">
					
						<ellipse transform="matrix(0.1015 -0.9948 0.9948 0.1015 809.7054 1116.1631)" class="st16" cx="1022.8" cy="109.8" rx="1.4" ry="1.4"/>
					<ellipse transform="matrix(0.2047 -0.9788 0.9788 0.2047 705.001 1087.9662)" cx="1022" cy="110.1" rx="0.7" ry="0.7"/>
				</g>
			</g>
			<ellipse id="nose_12_" class="st20" cx="1021" cy="111.9" rx="0.7" ry="0.9"/>
			<g id="hair_12_">
				<ellipse cx="1023.8" cy="106.5" rx="3.6" ry="1.1"/>
				<ellipse transform="matrix(0.3503 -0.9366 0.9366 0.3503 565.9964 1030.493)" cx="1025.8" cy="107.3" rx="1.1" ry="3.6"/>
				<ellipse transform="matrix(0.7517 -0.6595 0.6595 0.7517 183.2073 704.5118)" cx="1027.2" cy="108.9" rx="1.1" ry="3.6"/>
				<ellipse transform="matrix(0.9846 -0.1747 0.1747 0.9846 -3.724 181.3175)" cx="1028" cy="111.8" rx="1.1" ry="2.1"/>
			</g>
		</g>
		<g>
			<circle class="st19" cx="1113.5" cy="110.8" r="5.1"/>
			<g id="eyes_x5F_1_13_">
				<g id="eye_57_">
					
						<ellipse transform="matrix(0.1015 -0.9948 0.9948 0.1015 887.8734 1202.7191)" class="st16" cx="1109.8" cy="109.8" rx="1.4" ry="1.4"/>
					<ellipse transform="matrix(0.2047 -0.9788 0.9788 0.2047 774.1873 1173.1208)" cx="1109" cy="110.1" rx="0.7" ry="0.7"/>
				</g>
				<g id="eye_56_">
					
						<ellipse transform="matrix(0.1015 -0.9948 0.9948 0.1015 890.5688 1205.7037)" class="st16" cx="1112.8" cy="109.8" rx="1.4" ry="1.4"/>
					<ellipse transform="matrix(0.2047 -0.9788 0.9788 0.2047 776.5728 1176.0573)" cx="1112" cy="110.1" rx="0.7" ry="0.7"/>
				</g>
			</g>
			<ellipse id="nose_13_" class="st20" cx="1111" cy="111.9" rx="0.7" ry="0.9"/>
			<g id="hair_13_">
				<ellipse cx="1113.8" cy="106.5" rx="3.6" ry="1.1"/>
				<ellipse transform="matrix(0.3503 -0.9366 0.9366 0.3503 624.4778 1114.7928)" cx="1115.8" cy="107.3" rx="1.1" ry="3.6"/>
				<ellipse transform="matrix(0.7517 -0.6595 0.6595 0.7517 205.5527 763.8688)" cx="1117.2" cy="109" rx="1.1" ry="3.6"/>
				<ellipse transform="matrix(0.9846 -0.1747 0.1747 0.9846 -2.3393 197.0404)" cx="1118" cy="111.8" rx="1.1" ry="2.1"/>
			</g>
		</g>
		<g>
			<circle class="st19" cx="1203.5" cy="110.8" r="5.1"/>
			<g id="eyes_x5F_1_14_">
				<g id="eye_59_">
					
						<ellipse transform="matrix(0.1015 -0.9948 0.9948 0.1015 968.7368 1292.2596)" class="st16" cx="1199.8" cy="109.8" rx="1.4" ry="1.4"/>
					<ellipse transform="matrix(0.2047 -0.9788 0.9788 0.2047 845.759 1261.2119)" cx="1199" cy="110.1" rx="0.7" ry="0.7"/>
				</g>
				<g id="eye_58_">
					
						<ellipse transform="matrix(0.1015 -0.9948 0.9948 0.1015 971.4321 1295.2445)" class="st16" cx="1202.8" cy="109.8" rx="1.4" ry="1.4"/>
					<ellipse transform="matrix(0.2047 -0.9788 0.9788 0.2047 848.1448 1264.1483)" cx="1202" cy="110.1" rx="0.7" ry="0.7"/>
				</g>
			</g>
			<ellipse id="nose_14_" class="st20" cx="1201" cy="111.9" rx="0.7" ry="0.9"/>
			<g id="hair_14_">
				<ellipse cx="1203.8" cy="106.5" rx="3.6" ry="1.1"/>
				<ellipse transform="matrix(0.3503 -0.9366 0.9366 0.3503 682.9592 1199.0924)" cx="1205.8" cy="107.3" rx="1.1" ry="3.6"/>
				<ellipse transform="matrix(0.7517 -0.6595 0.6595 0.7517 227.8984 823.2258)" cx="1207.2" cy="109" rx="1.1" ry="3.6"/>
				<ellipse transform="matrix(0.9846 -0.1747 0.1747 0.9846 -0.9545 212.7632)" cx="1208" cy="111.8" rx="1.1" ry="2.1"/>
			</g>
		</g>
		<g>
			<circle class="st19" cx="1293.5" cy="110.8" r="5.1"/>
			<g id="eyes_x5F_1_15_">
				<g id="eye_61_">
					
						<ellipse transform="matrix(0.1015 -0.9948 0.9948 0.1015 1049.6001 1381.8004)" class="st16" cx="1289.8" cy="109.8" rx="1.4" ry="1.4"/>
					<ellipse transform="matrix(0.2047 -0.9788 0.9788 0.2047 917.3308 1349.303)" cx="1289" cy="110.1" rx="0.7" ry="0.7"/>
				</g>
				<g id="eye_60_">
					
						<ellipse transform="matrix(0.1015 -0.9948 0.9948 0.1015 1052.2955 1384.785)" class="st16" cx="1292.8" cy="109.8" rx="1.4" ry="1.4"/>
					<ellipse transform="matrix(0.2047 -0.9788 0.9788 0.2047 919.7166 1352.2394)" cx="1292" cy="110.1" rx="0.7" ry="0.7"/>
				</g>
			</g>
			<ellipse id="nose_15_" class="st20" cx="1291" cy="111.9" rx="0.7" ry="0.9"/>
			<g id="hair_15_">
				<ellipse cx="1293.8" cy="106.5" rx="3.6" ry="1.1"/>
				<ellipse transform="matrix(0.3503 -0.9366 0.9366 0.3503 741.4407 1283.3923)" cx="1295.8" cy="107.3" rx="1.1" ry="3.6"/>
				<ellipse transform="matrix(0.7517 -0.6595 0.6595 0.7517 250.2439 882.5828)" cx="1297.2" cy="109" rx="1.1" ry="3.6"/>
				<ellipse transform="matrix(0.9846 -0.1747 0.1747 0.9846 0.4302 228.486)" cx="1298" cy="111.8" rx="1.1" ry="2.1"/>
			</g>
		</g>
		<g>
			<circle class="st19" cx="1383.5" cy="110.8" r="5.1"/>
			<g id="eyes_x5F_1_16_">
				<g id="eye_63_">
					
						<ellipse transform="matrix(0.1015 -0.9948 0.9948 0.1015 1130.4635 1471.3409)" class="st16" cx="1379.8" cy="109.8" rx="1.4" ry="1.4"/>
					<ellipse transform="matrix(0.2047 -0.9788 0.9788 0.2047 988.9028 1437.394)" cx="1379" cy="110.1" rx="0.7" ry="0.7"/>
				</g>
				<g id="eye_62_">
					
						<ellipse transform="matrix(0.1015 -0.9948 0.9948 0.1015 1133.1591 1474.3257)" class="st16" cx="1382.8" cy="109.8" rx="1.4" ry="1.4"/>
					<ellipse transform="matrix(0.2047 -0.9788 0.9788 0.2047 991.2884 1440.3303)" cx="1382" cy="110.1" rx="0.7" ry="0.7"/>
				</g>
			</g>
			<ellipse id="nose_16_" class="st20" cx="1381" cy="111.9" rx="0.7" ry="0.9"/>
			<g id="hair_16_">
				<ellipse cx="1383.8" cy="106.5" rx="3.6" ry="1.1"/>
				<ellipse transform="matrix(0.3503 -0.9366 0.9366 0.3503 799.9223 1367.692)" cx="1385.8" cy="107.3" rx="1.1" ry="3.6"/>
				<ellipse transform="matrix(0.7517 -0.6595 0.6595 0.7517 272.5895 941.9398)" cx="1387.2" cy="109" rx="1.1" ry="3.6"/>
				<ellipse transform="matrix(0.9846 -0.1747 0.1747 0.9846 1.8149 244.2088)" cx="1388" cy="111.8" rx="1.1" ry="2.1"/>
			</g>
		</g>
		<g>
			<circle class="st19" cx="1473.5" cy="110.8" r="5.1"/>
			<g id="eyes_x5F_1_17_">
				<g id="eye_65_">
					
						<ellipse transform="matrix(0.1015 -0.9948 0.9948 0.1015 1211.327 1560.8816)" class="st16" cx="1469.8" cy="109.8" rx="1.4" ry="1.4"/>
					<ellipse transform="matrix(0.2047 -0.9788 0.9788 0.2047 1060.4746 1525.485)" cx="1469" cy="110.1" rx="0.7" ry="0.7"/>
				</g>
				<g id="eye_64_">
					
						<ellipse transform="matrix(0.1015 -0.9948 0.9948 0.1015 1214.0223 1563.8663)" class="st16" cx="1472.8" cy="109.8" rx="1.4" ry="1.4"/>
					<ellipse transform="matrix(0.2047 -0.9788 0.9788 0.2047 1062.8605 1528.4215)" cx="1472" cy="110.1" rx="0.7" ry="0.7"/>
				</g>
			</g>
			<ellipse id="nose_17_" class="st20" cx="1471" cy="111.9" rx="0.7" ry="0.9"/>
			<g id="hair_17_">
				<ellipse cx="1473.8" cy="106.5" rx="3.6" ry="1.1"/>
				<ellipse transform="matrix(0.3503 -0.9366 0.9366 0.3503 858.4037 1451.9917)" cx="1475.8" cy="107.3" rx="1.1" ry="3.6"/>
				<ellipse transform="matrix(0.7517 -0.6595 0.6595 0.7517 294.935 1001.2968)" cx="1477.2" cy="109" rx="1.1" ry="3.6"/>
				<ellipse transform="matrix(0.9846 -0.1747 0.1747 0.9846 3.1996 259.9316)" cx="1478" cy="111.8" rx="1.1" ry="2.1"/>
			</g>
		</g>
		<g>
			<circle class="st19" cx="1563.5" cy="110.8" r="5.1"/>
			<g id="eyes_x5F_1_18_">
				<g id="eye_67_">
					
						<ellipse transform="matrix(0.1015 -0.9948 0.9948 0.1015 1292.1903 1650.4224)" class="st16" cx="1559.8" cy="109.8" rx="1.4" ry="1.4"/>
					<ellipse transform="matrix(0.2047 -0.9788 0.9788 0.2047 1132.0465 1613.5762)" cx="1559" cy="110.1" rx="0.7" ry="0.7"/>
				</g>
				<g id="eye_66_">
					
						<ellipse transform="matrix(0.1015 -0.9948 0.9948 0.1015 1294.8857 1653.407)" class="st16" cx="1562.8" cy="109.8" rx="1.4" ry="1.4"/>
					<ellipse transform="matrix(0.2047 -0.9788 0.9788 0.2047 1134.4323 1616.5126)" cx="1562" cy="110.1" rx="0.7" ry="0.7"/>
				</g>
			</g>
			<ellipse id="nose_18_" class="st20" cx="1561" cy="111.9" rx="0.7" ry="0.9"/>
			<g id="hair_18_">
				<ellipse cx="1563.8" cy="106.5" rx="3.6" ry="1.1"/>
				<ellipse transform="matrix(0.3503 -0.9366 0.9366 0.3503 916.8851 1536.2914)" cx="1565.8" cy="107.2" rx="1.1" ry="3.6"/>
				<ellipse transform="matrix(0.7517 -0.6595 0.6595 0.7517 317.2805 1060.6538)" cx="1567.2" cy="109" rx="1.1" ry="3.6"/>
				<ellipse transform="matrix(0.9846 -0.1747 0.1747 0.9846 4.5844 275.6544)" cx="1568" cy="111.8" rx="1.1" ry="2.1"/>
			</g>
		</g>
		<g>
			<circle class="st19" cx="1653.5" cy="110.8" r="5.1"/>
			<g id="eyes_x5F_1_19_">
				<g id="eye_69_">
					
						<ellipse transform="matrix(0.1015 -0.9948 0.9948 0.1015 1373.0538 1739.963)" class="st16" cx="1649.8" cy="109.8" rx="1.4" ry="1.4"/>
					<ellipse transform="matrix(0.2047 -0.9788 0.9788 0.2047 1203.6184 1701.6672)" cx="1649" cy="110.1" rx="0.7" ry="0.7"/>
				</g>
				<g id="eye_68_">
					
						<ellipse transform="matrix(0.1015 -0.9948 0.9948 0.1015 1375.7493 1742.9476)" class="st16" cx="1652.8" cy="109.8" rx="1.4" ry="1.4"/>
					<ellipse transform="matrix(0.2047 -0.9788 0.9788 0.2047 1206.004 1704.6036)" cx="1652" cy="110.1" rx="0.7" ry="0.7"/>
				</g>
			</g>
			<ellipse id="nose_19_" class="st20" cx="1651" cy="111.9" rx="0.7" ry="0.9"/>
			<g id="hair_19_">
				<ellipse cx="1653.8" cy="106.5" rx="3.6" ry="1.1"/>
				<ellipse transform="matrix(0.3503 -0.9366 0.9366 0.3503 975.3666 1620.5911)" cx="1655.8" cy="107.2" rx="1.1" ry="3.6"/>
				<ellipse transform="matrix(0.7517 -0.6595 0.6595 0.7517 339.6261 1120.0109)" cx="1657.2" cy="109" rx="1.1" ry="3.6"/>
				<ellipse transform="matrix(0.9846 -0.1747 0.1747 0.9846 5.9691 291.3773)" cx="1658" cy="111.8" rx="1.1" ry="2.1"/>
			</g>
		</g>
		<g>
			<circle class="st19" cx="1743.5" cy="110.8" r="5.1"/>
			<g id="eyes_x5F_1_20_">
				<g id="eye_71_">
					
						<ellipse transform="matrix(0.1015 -0.9948 0.9948 0.1015 1453.9171 1829.5034)" class="st16" cx="1739.8" cy="109.8" rx="1.4" ry="1.4"/>
					<ellipse transform="matrix(0.2047 -0.9788 0.9788 0.2047 1275.1903 1789.7583)" cx="1739" cy="110.1" rx="0.7" ry="0.7"/>
				</g>
				<g id="eye_70_">
					
						<ellipse transform="matrix(0.1015 -0.9948 0.9948 0.1015 1456.6125 1832.4883)" class="st16" cx="1742.8" cy="109.8" rx="1.4" ry="1.4"/>
					<ellipse transform="matrix(0.2047 -0.9788 0.9788 0.2047 1277.576 1792.6946)" cx="1742" cy="110.1" rx="0.7" ry="0.7"/>
				</g>
			</g>
			<ellipse id="nose_20_" class="st20" cx="1741" cy="111.9" rx="0.7" ry="0.9"/>
			<g id="hair_20_">
				<ellipse cx="1743.8" cy="106.5" rx="3.6" ry="1.1"/>
				<ellipse transform="matrix(0.3503 -0.9366 0.9366 0.3503 1033.848 1704.8907)" cx="1745.8" cy="107.2" rx="1.1" ry="3.6"/>
				<ellipse transform="matrix(0.7517 -0.6595 0.6595 0.7517 361.9717 1179.3679)" cx="1747.2" cy="109" rx="1.1" ry="3.6"/>
				<ellipse transform="matrix(0.9846 -0.1747 0.1747 0.9846 7.3538 307.1001)" cx="1748" cy="111.8" rx="1.1" ry="2.1"/>
			</g>
		</g>
		<g>
			<circle class="st19" cx="1833.5" cy="110.8" r="5.1"/>
			<g id="eyes_x5F_1_21_">
				<g id="eye_73_">
					
						<ellipse transform="matrix(0.1015 -0.9948 0.9948 0.1015 1534.7805 1919.0442)" class="st16" cx="1829.8" cy="109.9" rx="1.4" ry="1.4"/>
					<ellipse transform="matrix(0.2047 -0.9788 0.9788 0.2047 1346.7621 1877.8494)" cx="1829" cy="110.1" rx="0.7" ry="0.7"/>
				</g>
				<g id="eye_72_">
					
						<ellipse transform="matrix(0.1015 -0.9948 0.9948 0.1015 1537.476 1922.0289)" class="st16" cx="1832.8" cy="109.9" rx="1.4" ry="1.4"/>
					<ellipse transform="matrix(0.2047 -0.9788 0.9788 0.2047 1349.1478 1880.7856)" cx="1832" cy="110.1" rx="0.7" ry="0.7"/>
				</g>
			</g>
			<ellipse id="nose_21_" class="st20" cx="1831" cy="111.9" rx="0.7" ry="0.9"/>
			<g id="hair_21_">
				<ellipse cx="1833.8" cy="106.5" rx="3.6" ry="1.1"/>
				<ellipse transform="matrix(0.3503 -0.9366 0.9366 0.3503 1092.3295 1789.1906)" cx="1835.8" cy="107.2" rx="1.1" ry="3.6"/>
				<ellipse transform="matrix(0.7517 -0.6595 0.6595 0.7517 384.3173 1238.7249)" cx="1837.2" cy="109" rx="1.1" ry="3.6"/>
				<ellipse transform="matrix(0.9846 -0.1747 0.1747 0.9846 8.7386 322.8229)" cx="1838" cy="111.8" rx="1.1" ry="2.1"/>
			</g>
		</g>
		<g>
			<circle class="st19" cx="1923.5" cy="110.8" r="5.1"/>
			<g id="eyes_x5F_1_22_">
				<g id="eye_75_">
					
						<ellipse transform="matrix(0.1015 -0.9948 0.9948 0.1015 1615.644 2008.5848)" class="st16" cx="1919.8" cy="109.9" rx="1.4" ry="1.4"/>
					<ellipse transform="matrix(0.2047 -0.9788 0.9788 0.2047 1418.334 1965.9403)" cx="1919" cy="110.2" rx="0.7" ry="0.7"/>
				</g>
				<g id="eye_74_">
					
						<ellipse transform="matrix(0.1015 -0.9948 0.9948 0.1015 1618.3395 2011.5695)" class="st16" cx="1922.8" cy="109.9" rx="1.4" ry="1.4"/>
					<ellipse transform="matrix(0.2047 -0.9788 0.9788 0.2047 1420.7197 1968.8767)" cx="1922" cy="110.2" rx="0.7" ry="0.7"/>
				</g>
			</g>
			<ellipse id="nose_22_" class="st20" cx="1921" cy="111.9" rx="0.7" ry="0.9"/>
			<g id="hair_22_">
				<ellipse cx="1923.8" cy="106.5" rx="3.6" ry="1.1"/>
				<ellipse transform="matrix(0.3503 -0.9366 0.9366 0.3503 1150.8108 1873.4902)" cx="1925.8" cy="107.2" rx="1.1" ry="3.6"/>
				<ellipse transform="matrix(0.7517 -0.6595 0.6595 0.7517 406.6628 1298.0819)" cx="1927.2" cy="109" rx="1.1" ry="3.6"/>
				<ellipse transform="matrix(0.9846 -0.1747 0.1747 0.9846 10.1233 338.5457)" cx="1928" cy="111.8" rx="1.1" ry="2.1"/>
			</g>
		</g>
		<g>
			<circle class="st19" cx="2013.5" cy="110.8" r="5.1"/>
			<g id="eyes_x5F_1_23_">
				<g id="eye_77_">
					
						<ellipse transform="matrix(0.1015 -0.9948 0.9948 0.1015 1696.5073 2098.1255)" class="st16" cx="2009.8" cy="109.9" rx="1.4" ry="1.4"/>
					<ellipse transform="matrix(0.2047 -0.9788 0.9788 0.2047 1489.9059 2054.0315)" cx="2009" cy="110.2" rx="0.7" ry="0.7"/>
				</g>
				<g id="eye_76_">
					
						<ellipse transform="matrix(0.1015 -0.9948 0.9948 0.1015 1699.2028 2101.1104)" class="st16" cx="2012.8" cy="109.9" rx="1.4" ry="1.4"/>
					<ellipse transform="matrix(0.2047 -0.9788 0.9788 0.2047 1492.2915 2056.9678)" cx="2012" cy="110.2" rx="0.7" ry="0.7"/>
				</g>
			</g>
			<ellipse id="nose_23_" class="st20" cx="2011" cy="111.9" rx="0.7" ry="0.9"/>
			<g id="hair_23_">
				<ellipse cx="2013.8" cy="106.5" rx="3.6" ry="1.1"/>
				<ellipse transform="matrix(0.3503 -0.9366 0.9366 0.3503 1209.2924 1957.79)" cx="2015.8" cy="107.2" rx="1.1" ry="3.6"/>
				<ellipse transform="matrix(0.7517 -0.6595 0.6595 0.7517 429.0083 1357.439)" cx="2017.2" cy="109" rx="1.1" ry="3.6"/>
				<ellipse transform="matrix(0.9846 -0.1747 0.1747 0.9846 11.508 354.2686)" cx="2018" cy="111.8" rx="1.1" ry="2.1"/>
			</g>
		</g>
		<g>
			<circle class="st19" cx="2103.5" cy="110.8" r="5.1"/>
			<g id="eyes_x5F_1_24_">
				<g id="eye_79_">
					
						<ellipse transform="matrix(0.1015 -0.9948 0.9948 0.1015 1777.3708 2187.666)" class="st16" cx="2099.8" cy="109.9" rx="1.4" ry="1.4"/>
					<ellipse transform="matrix(0.2047 -0.9788 0.9788 0.2047 1561.4777 2142.1226)" cx="2099" cy="110.2" rx="0.7" ry="0.7"/>
				</g>
				<g id="eye_78_">
					
						<ellipse transform="matrix(0.1015 -0.9948 0.9948 0.1015 1780.0662 2190.6509)" class="st16" cx="2102.8" cy="109.9" rx="1.4" ry="1.4"/>
					<ellipse transform="matrix(0.2047 -0.9788 0.9788 0.2047 1563.8633 2145.0588)" cx="2102" cy="110.2" rx="0.7" ry="0.7"/>
				</g>
			</g>
			<ellipse id="nose_24_" class="st20" cx="2101" cy="111.9" rx="0.7" ry="0.9"/>
			<g id="hair_24_">
				<ellipse cx="2103.8" cy="106.5" rx="3.6" ry="1.1"/>
				<ellipse transform="matrix(0.3503 -0.9366 0.9366 0.3503 1267.7737 2042.0896)" cx="2105.8" cy="107.2" rx="1.1" ry="3.6"/>
				<ellipse transform="matrix(0.7517 -0.6595 0.6595 0.7517 451.3538 1416.7959)" cx="2107.3" cy="109" rx="1.1" ry="3.6"/>
				<ellipse transform="matrix(0.9846 -0.1747 0.1747 0.9846 12.8928 369.9914)" cx="2108" cy="111.8" rx="1.1" ry="2.1"/>
			</g>
		</g>
		<g>
			<circle class="st19" cx="2193.5" cy="110.8" r="5.1"/>
			<g id="eyes_x5F_1_25_">
				<g id="eye_81_">
					
						<ellipse transform="matrix(0.1015 -0.9948 0.9948 0.1015 1858.2341 2277.2068)" class="st16" cx="2189.8" cy="109.9" rx="1.4" ry="1.4"/>
					<ellipse transform="matrix(0.2047 -0.9788 0.9788 0.2047 1633.0493 2230.2136)" cx="2189" cy="110.2" rx="0.7" ry="0.7"/>
				</g>
				<g id="eye_80_">
					
						<ellipse transform="matrix(0.1015 -0.9948 0.9948 0.1015 1860.9297 2280.1914)" class="st16" cx="2192.8" cy="109.9" rx="1.4" ry="1.4"/>
					<ellipse transform="matrix(0.2047 -0.9788 0.9788 0.2047 1635.4353 2233.1499)" cx="2192" cy="110.2" rx="0.7" ry="0.7"/>
				</g>
			</g>
			<ellipse id="nose_25_" class="st20" cx="2191" cy="111.9" rx="0.7" ry="0.9"/>
			<g id="hair_25_">
				<ellipse cx="2193.8" cy="106.5" rx="3.6" ry="1.1"/>
				<ellipse transform="matrix(0.3503 -0.9366 0.9366 0.3503 1326.2552 2126.3894)" cx="2195.8" cy="107.2" rx="1.1" ry="3.6"/>
				<ellipse transform="matrix(0.7517 -0.6595 0.6595 0.7517 473.6993 1476.153)" cx="2197.3" cy="109" rx="1.1" ry="3.6"/>
				<ellipse transform="matrix(0.9846 -0.1747 0.1747 0.9846 14.2775 385.7142)" cx="2198" cy="111.8" rx="1.1" ry="2.1"/>
			</g>
		</g>
		<g>
			<circle class="st19" cx="2283.5" cy="110.8" r="5.1"/>
			<g id="eyes_x5F_1_26_">
				<g id="eye_83_">
					
						<ellipse transform="matrix(0.1015 -0.9948 0.9948 0.1015 1939.0975 2366.7476)" class="st16" cx="2279.8" cy="109.9" rx="1.4" ry="1.4"/>
					<ellipse transform="matrix(0.2047 -0.9788 0.9788 0.2047 1704.6215 2318.3047)" cx="2279" cy="110.2" rx="0.7" ry="0.7"/>
				</g>
				<g id="eye_82_">
					
						<ellipse transform="matrix(0.1015 -0.9948 0.9948 0.1015 1941.7931 2369.7322)" class="st16" cx="2282.8" cy="109.9" rx="1.4" ry="1.4"/>
					<ellipse transform="matrix(0.2047 -0.9788 0.9788 0.2047 1707.0071 2321.2412)" cx="2282" cy="110.2" rx="0.7" ry="0.7"/>
				</g>
			</g>
			<ellipse id="nose_26_" class="st20" cx="2281" cy="111.9" rx="0.7" ry="0.9"/>
			<g id="hair_26_">
				<ellipse cx="2283.8" cy="106.5" rx="3.6" ry="1.1"/>
				<ellipse transform="matrix(0.3503 -0.9366 0.9366 0.3503 1384.7368 2210.6892)" cx="2285.8" cy="107.2" rx="1.1" ry="3.6"/>
				<ellipse transform="matrix(0.7517 -0.6595 0.6595 0.7517 496.045 1535.5099)" cx="2287.3" cy="109" rx="1.1" ry="3.6"/>
				<ellipse transform="matrix(0.9846 -0.1747 0.1747 0.9846 15.6622 401.437)" cx="2288" cy="111.8" rx="1.1" ry="2.1"/>
			</g>
		</g>
		<g>
			<circle class="st19" cx="2373.5" cy="110.8" r="5.1"/>
			<g id="eyes_x5F_1_27_">
				<g id="eye_85_">
					
						<ellipse transform="matrix(0.1015 -0.9948 0.9948 0.1015 2019.9609 2456.2881)" class="st16" cx="2369.8" cy="109.9" rx="1.4" ry="1.4"/>
					<ellipse transform="matrix(0.2047 -0.9788 0.9788 0.2047 1776.1934 2406.3958)" cx="2369" cy="110.2" rx="0.7" ry="0.7"/>
				</g>
				<g id="eye_84_">
					
						<ellipse transform="matrix(0.1015 -0.9948 0.9948 0.1015 2022.6563 2459.2727)" class="st16" cx="2372.8" cy="109.9" rx="1.4" ry="1.4"/>
					<ellipse transform="matrix(0.2047 -0.9788 0.9788 0.2047 1778.579 2409.332)" cx="2372" cy="110.2" rx="0.7" ry="0.7"/>
				</g>
			</g>
			<ellipse id="nose_27_" class="st20" cx="2371" cy="111.9" rx="0.7" ry="0.9"/>
			<g id="hair_27_">
				<ellipse cx="2373.8" cy="106.5" rx="3.6" ry="1.1"/>
				<ellipse transform="matrix(0.3503 -0.9366 0.9366 0.3503 1443.2181 2294.9888)" cx="2375.9" cy="107.2" rx="1.1" ry="3.6"/>
				<ellipse transform="matrix(0.7517 -0.6595 0.6595 0.7517 518.3904 1594.8669)" cx="2377.3" cy="109" rx="1.1" ry="3.6"/>
				<ellipse transform="matrix(0.9846 -0.1747 0.1747 0.9846 17.047 417.1598)" cx="2378" cy="111.8" rx="1.1" ry="2.1"/>
			</g>
		</g>
		<g>
			<circle class="st19" cx="2463.5" cy="110.8" r="5.1"/>
			<g id="eyes_x5F_1_28_">
				<g id="eye_87_">
					
						<ellipse transform="matrix(0.1015 -0.9948 0.9948 0.1015 2100.8245 2545.8286)" class="st16" cx="2459.8" cy="109.9" rx="1.4" ry="1.4"/>
					<ellipse transform="matrix(0.2047 -0.9788 0.9788 0.2047 1847.765 2494.4868)" cx="2458.9" cy="110.2" rx="0.7" ry="0.7"/>
				</g>
				<g id="eye_86_">
					
						<ellipse transform="matrix(0.1015 -0.9948 0.9948 0.1015 2103.5198 2548.8135)" class="st16" cx="2462.8" cy="109.9" rx="1.4" ry="1.4"/>
					<ellipse transform="matrix(0.2047 -0.9788 0.9788 0.2047 1850.1509 2497.4231)" cx="2461.9" cy="110.2" rx="0.7" ry="0.7"/>
				</g>
			</g>
			<ellipse id="nose_28_" class="st20" cx="2461" cy="111.9" rx="0.7" ry="0.9"/>
			<g id="hair_28_">
				<ellipse cx="2463.8" cy="106.5" rx="3.6" ry="1.1"/>
				<ellipse transform="matrix(0.3503 -0.9366 0.9366 0.3503 1501.6996 2379.2886)" cx="2465.9" cy="107.2" rx="1.1" ry="3.6"/>
				<ellipse transform="matrix(0.7517 -0.6595 0.6595 0.7517 540.736 1654.224)" cx="2467.3" cy="109" rx="1.1" ry="3.6"/>
				<ellipse transform="matrix(0.9846 -0.1747 0.1747 0.9846 18.4317 432.8826)" cx="2468" cy="111.7" rx="1.1" ry="2.1"/>
			</g>
		</g>
		<g>
			<circle class="st19" cx="2553.5" cy="110.8" r="5.1"/>
			<g id="eyes_x5F_1_29_">
				<g id="eye_89_">
					
						<ellipse transform="matrix(0.1015 -0.9948 0.9948 0.1015 2181.688 2635.3694)" class="st16" cx="2549.8" cy="109.9" rx="1.4" ry="1.4"/>
					<ellipse transform="matrix(0.2047 -0.9788 0.9788 0.2047 1919.337 2582.5779)" cx="2548.9" cy="110.2" rx="0.7" ry="0.7"/>
				</g>
				<g id="eye_88_">
					
						<ellipse transform="matrix(0.1015 -0.9948 0.9948 0.1015 2184.3833 2638.354)" class="st16" cx="2552.8" cy="109.9" rx="1.4" ry="1.4"/>
					<ellipse transform="matrix(0.2047 -0.9788 0.9788 0.2047 1921.7227 2585.5144)" cx="2551.9" cy="110.2" rx="0.7" ry="0.7"/>
				</g>
			</g>
			<ellipse id="nose_29_" class="st20" cx="2551" cy="111.9" rx="0.7" ry="0.9"/>
			<g id="hair_29_">
				<ellipse cx="2553.8" cy="106.5" rx="3.6" ry="1.1"/>
				<ellipse transform="matrix(0.3503 -0.9366 0.9366 0.3503 1560.181 2463.5881)" cx="2555.9" cy="107.2" rx="1.1" ry="3.6"/>
				<ellipse transform="matrix(0.7517 -0.6595 0.6595 0.7517 563.0815 1713.5811)" cx="2557.3" cy="109" rx="1.1" ry="3.6"/>
				<ellipse transform="matrix(0.9846 -0.1747 0.1747 0.9846 19.8164 448.6054)" cx="2558" cy="111.7" rx="1.1" ry="2.1"/>
			</g>
		</g>
		<g>
			<circle class="st19" cx="2643.5" cy="110.8" r="5.1"/>
			<g id="eyes_x5F_1_30_">
				<g id="eye_91_">
					
						<ellipse transform="matrix(0.1015 -0.9948 0.9948 0.1015 2262.5513 2724.9099)" class="st16" cx="2639.8" cy="109.9" rx="1.4" ry="1.4"/>
					<ellipse transform="matrix(0.2047 -0.9788 0.9788 0.2047 1990.9089 2670.6689)" cx="2638.9" cy="110.2" rx="0.7" ry="0.7"/>
				</g>
				<g id="eye_90_">
					
						<ellipse transform="matrix(0.1015 -0.9948 0.9948 0.1015 2265.2466 2727.8948)" class="st16" cx="2642.8" cy="109.9" rx="1.4" ry="1.4"/>
					<ellipse transform="matrix(0.2047 -0.9788 0.9788 0.2047 1993.2946 2673.6052)" cx="2641.9" cy="110.2" rx="0.7" ry="0.7"/>
				</g>
			</g>
			<ellipse id="nose_30_" class="st20" cx="2641" cy="111.9" rx="0.7" ry="0.9"/>
			<g id="hair_30_">
				<ellipse cx="2643.8" cy="106.5" rx="3.6" ry="1.1"/>
				<ellipse transform="matrix(0.3503 -0.9366 0.9366 0.3503 1618.6625 2547.8879)" cx="2645.9" cy="107.2" rx="1.1" ry="3.6"/>
				<ellipse transform="matrix(0.7517 -0.6595 0.6595 0.7517 585.4271 1772.938)" cx="2647.3" cy="109" rx="1.1" ry="3.6"/>
				<ellipse transform="matrix(0.9846 -0.1747 0.1747 0.9846 21.2012 464.3283)" cx="2648" cy="111.7" rx="1.1" ry="2.1"/>
			</g>
		</g>
		<g>
			<circle class="st19" cx="2733.5" cy="110.8" r="5.1"/>
			<g id="eyes_x5F_1_31_">
				<g id="eye_93_">
					
						<ellipse transform="matrix(0.1015 -0.9948 0.9948 0.1015 2343.4146 2814.4509)" class="st16" cx="2729.8" cy="109.9" rx="1.4" ry="1.4"/>
					<ellipse transform="matrix(0.2047 -0.9788 0.9788 0.2047 2062.4807 2758.76)" cx="2728.9" cy="110.2" rx="0.7" ry="0.7"/>
				</g>
				<g id="eye_92_">
					
						<ellipse transform="matrix(0.1015 -0.9948 0.9948 0.1015 2346.1101 2817.4353)" class="st16" cx="2732.8" cy="109.9" rx="1.4" ry="1.4"/>
					<ellipse transform="matrix(0.2047 -0.9788 0.9788 0.2047 2064.8665 2761.6963)" cx="2731.9" cy="110.2" rx="0.7" ry="0.7"/>
				</g>
			</g>
			<ellipse id="nose_31_" class="st20" cx="2731" cy="111.9" rx="0.7" ry="0.9"/>
			<g id="hair_31_">
				<ellipse cx="2733.8" cy="106.5" rx="3.6" ry="1.1"/>
				<ellipse transform="matrix(0.3503 -0.9366 0.9366 0.3503 1677.1439 2632.1875)" cx="2735.9" cy="107.2" rx="1.1" ry="3.6"/>
				<ellipse transform="matrix(0.7517 -0.6595 0.6595 0.7517 607.7727 1832.2949)" cx="2737.3" cy="109" rx="1.1" ry="3.6"/>
				<ellipse transform="matrix(0.9846 -0.1747 0.1747 0.9846 22.5859 480.0511)" cx="2738" cy="111.7" rx="1.1" ry="2.1"/>
			</g>
		</g>
	</g>
	<rect x="2700" class="st13" width="90" height="150"/>
</g>
</svg>
