<?xml version="1.0" encoding="utf-8"?>
<!-- Generator: Adobe Illustrator 21.0.0, SVG Export Plug-In . SVG Version: 6.00 Build 0)  -->
<svg version="1.1" id="Layer_1" xmlns="http://www.w3.org/2000/svg" xmlns:xlink="http://www.w3.org/1999/xlink" x="0px" y="0px"
	 viewBox="0 0 90 150" style="enable-background:new 0 0 90 150;" xml:space="preserve">
<style type="text/css">
	.st0{display:none;}
	.st1{display:inline;fill:#F7B763;stroke:#000000;stroke-width:0.5;stroke-miterlimit:10;}
	.st2{display:inline;}
	.st3{fill:#FFFFFF;}
	.st4{fill:#F7B763;}
	.st5{fill:none;stroke:#050300;stroke-width:0.1;stroke-miterlimit:10;}
	.st6{display:inline;fill:#B26912;}
	.st7{display:none;fill:#F2CA25;}
	.st8{fill:none;stroke:#7A7A7A;stroke-width:0.5;stroke-miterlimit:10;}
	.st9{fill:#7A7A7A;}
	.st10{fill:#7A7A7A;stroke:#000000;stroke-width:0.5;stroke-miterlimit:10;}
	.st11{fill:#9B0408;stroke:#000000;stroke-width:0.5;stroke-miterlimit:10;}
	.st12{fill:#084E96;stroke:#000000;stroke-width:0.5;stroke-miterlimit:10;}
	.st13{fill:#E7E7E7;stroke:#000000;stroke-width:0.5;stroke-miterlimit:10;}
	.st14{display:inline;fill:#635039;stroke:#000000;stroke-miterlimit:10;}
	.st15{display:inline;fill:#D2F0FF;stroke:#000000;stroke-miterlimit:10;}
	.st16{display:inline;fill:#B4CEDB;stroke:#000000;stroke-miterlimit:10;}
	.st17{display:inline;fill:#76B1CF;stroke:#000000;stroke-miterlimit:10;}
	.st18{display:inline;fill:#BF7B28;stroke:#000000;stroke-miterlimit:10;}
</style>
<g id="Layer_1_1_" class="st0">
</g>
<g id="dude" class="st0">
	<circle class="st1" cx="33.5" cy="110.8" r="5.1"/>
	<g id="eyes_x5F_1" class="st2">
		<g id="eye">
			
				<ellipse transform="matrix(0.1015 -0.9948 0.9948 0.1015 -82.5154 128.226)" class="st3" cx="29.7" cy="109.8" rx="1.4" ry="1.4"/>
			<ellipse transform="matrix(0.2047 -0.9788 0.9788 0.2047 -84.697 116.0198)" cx="29" cy="110.1" rx="0.7" ry="0.7"/>
		</g>
		<g id="eye_1_">
			
				<ellipse transform="matrix(0.1015 -0.9948 0.9948 0.1015 -79.8202 131.2106)" class="st3" cx="32.7" cy="109.8" rx="1.4" ry="1.4"/>
			<ellipse transform="matrix(0.2047 -0.9788 0.9788 0.2047 -82.3111 118.956)" cx="32" cy="110.1" rx="0.7" ry="0.7"/>
		</g>
	</g>
	<g id="eyes_x5F_2" class="st2">
		<g id="eye_3_">
			
				<ellipse transform="matrix(0.1015 -0.9948 0.9948 0.1015 -82.5154 128.226)" class="st3" cx="29.7" cy="109.8" rx="1.4" ry="1.4"/>
			<ellipse transform="matrix(0.2047 -0.9788 0.9788 0.2047 -84.697 116.0198)" cx="29" cy="110.1" rx="0.7" ry="0.7"/>
			<path class="st4" d="M31.2,109.7c0,0.8-3.1,0-2.7-0.7c0.3-0.6,0.9-0.7,1.2-0.7C30.6,108.2,31.2,108.9,31.2,109.7z"/>
		</g>
		<g id="eye_2_">
			
				<ellipse transform="matrix(0.1015 -0.9948 0.9948 0.1015 -79.8202 131.2106)" class="st3" cx="32.7" cy="109.8" rx="1.4" ry="1.4"/>
			<ellipse transform="matrix(0.2047 -0.9788 0.9788 0.2047 -82.3111 118.956)" cx="32" cy="110.1" rx="0.7" ry="0.7"/>
			<path class="st4" d="M34.2,109.7c0,0.8-3.1,0-2.7-0.7c0.3-0.6,0.9-0.7,1.2-0.7C33.6,108.2,34.2,108.9,34.2,109.7z"/>
		</g>
	</g>
	<g id="eyes_x5F_3" class="st2">
		<g id="eye_5_">
			
				<ellipse transform="matrix(0.1015 -0.9948 0.9948 0.1015 -82.5154 128.226)" class="st3" cx="29.7" cy="109.8" rx="1.4" ry="1.4"/>
			<ellipse transform="matrix(0.2047 -0.9788 0.9788 0.2047 -84.697 116.0198)" cx="29" cy="110.1" rx="0.7" ry="0.7"/>
			<path class="st4" d="M31.3,110.3c-0.2,1.1-3.2,0-2.8-1c0.3-0.8,1-1,1.3-1C30.5,108.2,31.5,109.2,31.3,110.3z"/>
		</g>
		<g id="eye_4_">
			
				<ellipse transform="matrix(0.1015 -0.9948 0.9948 0.1015 -79.8202 131.2106)" class="st3" cx="32.7" cy="109.8" rx="1.4" ry="1.4"/>
			<ellipse transform="matrix(0.2047 -0.9788 0.9788 0.2047 -82.3111 118.956)" cx="32" cy="110.1" rx="0.7" ry="0.7"/>
			<path class="st4" d="M34.3,110.3c-0.2,1.1-3.2,0-2.8-1c0.3-0.8,1-1,1.3-1C33.5,108.2,34.5,109.2,34.3,110.3z"/>
		</g>
	</g>
	<g id="eyes_x5F_4" class="st2">
		<g id="eye_7_">
			
				<ellipse transform="matrix(0.1015 -0.9948 0.9948 0.1015 -82.5154 128.226)" class="st4" cx="29.7" cy="109.8" rx="1.4" ry="1.4"/>
			<path class="st5" d="M28.6,109.1c0,0,0.1,0.5,1,1s1.4,0.4,1.4,0.4"/>
		</g>
		<g id="eye_8_">
			
				<ellipse transform="matrix(0.1015 -0.9948 0.9948 0.1015 -79.8202 131.2106)" class="st4" cx="32.7" cy="109.8" rx="1.4" ry="1.4"/>
			<path class="st5" d="M31.5,109.3c0,0,0.2,0.5,1.2,0.8s1.4,0.1,1.4,0.1"/>
		</g>
	</g>
	<ellipse id="nose" class="st6" cx="31" cy="111.9" rx="0.7" ry="0.9"/>
	<g id="hair" class="st2">
		<ellipse cx="33.8" cy="106.5" rx="3.6" ry="1.1"/>
		<ellipse transform="matrix(0.3503 -0.9366 0.9366 0.3503 -77.3649 103.1461)" cx="35.7" cy="107.3" rx="1.1" ry="3.6"/>
		<ellipse transform="matrix(0.7517 -0.6595 0.6595 0.7517 -62.5842 51.5638)" cx="37.2" cy="108.9" rx="1.1" ry="3.6"/>
		<ellipse transform="matrix(0.9846 -0.1747 0.1747 0.9846 -18.9649 8.3594)" cx="38" cy="111.9" rx="1.1" ry="2.1"/>
	</g>
</g>
<g id="balloon">
	<path id="fire1" class="st7" d="M44.6,106c0,0-0.8-0.9-1-3.2c-0.2-2.3,0.4-4,0.4-4s0.2,1.4,0.8,2.4s0.3-1.9,0.3-1.9
		s0.2,1.2,0.7,1.9c0.5,0.7-0.4-6.9-0.4-6.9s1.7,5.2,1.7,7.8s-0.8,4-0.8,4h-1.7V106z"/>
	<path id="fire2" class="st7" d="M44.6,106c0,0-0.8-0.9-1-3.2c-0.2-2.3,1.6-5.6,1.6-5.6s-0.9,3-0.3,4c0.6,1,1.1-1.8,1.1-1.8
		s-0.1,1.2,0.3,1.9c0.5,0.7,0.4,0.1,0.4,0.1s0.5-1.8,0.5,0.7s-0.8,4-0.8,4L44.6,106L44.6,106z"/>
	<path id="fire3" class="st7" d="M44.6,106c0,0-0.8-0.9-1-3.2c-0.2-2.3,0.9-0.7,0.9-0.7s0,1.5,0.6,1.2s-0.3-1.8-0.3-1.8
		s0.5-0.4,1,0.3c0.5,0.7-1.4-3.8-1.1-3.8c0.3,0,2.6,1.4,2.6,4s-0.8,4-0.8,4H44.6z"/>
	<path id="fire4" class="st7" d="M44.6,106c0,0-0.8-0.9-1-3.2c-0.2-2.3,1.5,0.9,1.5,0.9s0.7-1.6-0.2-2.5c-0.8-0.9-0.4-5.5-0.4-5.5
		s1.4,4.7,1.9,5.4c0.5,0.7-0.1-2.2-0.1-2.2s1,0.7,1,3.2s-0.8,4-0.8,4h-1.9V106z"/>
	<rect id="firekeeper1" x="42.1" y="90.7" class="st8" width="6.3" height="16.7"/>
	<rect id="firekeeper2" x="43.3" y="105.7" class="st9" width="3.9" height="3.2"/>
	<polygon id="balken" class="st8" points="50.3,112.7 40,112.7 38.1,91.2 52.7,91.2 	"/>
	<polygon id="basket" class="st10" points="28,112.7 62.5,112.7 59,135.7 32.7,135.7 	"/>
	<path id="zeil" class="st11" d="M36.2,91.2l9.1-1l8.6,1c0,0,20.2-20.8,23.8-37C81.3,38,78.5,34,76.8,29.7
		C75.2,25.3,66.7,11,45.2,11S13.3,28.8,13.3,28.8s-4.2,10.7-1,25.2S36.2,91.2,36.2,91.2z"/>
	<path id="zeil_x5F_g1" class="st12" d="M36.2,91.2l9.1-1l7-0.3c0,0,14.5-78.9-7-78.9s-31,14.9-31.9,17.8c-0.9,3-4.2,10.7-1,25.2
		S36.2,91.2,36.2,91.2z"/>
	<path id="zeil_x5F_n1" class="st12" d="M38.1,91.2l7.5-1l7.1,1c0,0,15.9-21,19.6-37c5.3-22.8-2-30.3-2-30.3S63.2,11,45.5,11
		S21,22.8,21,22.8s-6.5,6.5-2.5,31.2C20.8,68.5,38.1,91.2,38.1,91.2z"/>
	<path id="zeil_x5F_g2" class="st11" d="M38.1,91.2l7.5-1c0,0,17.7-79.2,0-79.2S21,22.8,21,22.8s-6.5,6.5-2.5,31.2
		C20.8,68.5,38.1,91.2,38.1,91.2z"/>
	<path id="zeil_x5F_n2" class="st11" d="M41.4,90.3l4.2-1l3.9,1c0,0,8.8-21,10.9-37c3-22.8-1.1-30.3-1.1-30.3s-3.9-11.8-13.7-11.8
		S31.9,22,31.9,22s-3.6,6.5-1.4,31.2C31.8,67.7,41.4,90.3,41.4,90.3z"/>
	<path id="zeil_x5F_n3" class="st12" d="M41.4,90.3l4.2-1V11.1c0,0-11.7,1.2-14.9,10.8c-3.5,10.6-2.3,6.5-0.1,31.2
		C31.8,67.7,41.4,90.3,41.4,90.3z"/>
	<path id="connect" class="st10" d="M36.7,91.2h16.6c0,0-2.5-3.3-7.8-3.3S36.7,91.2,36.7,91.2z"/>
	<path id="bag" class="st13" d="M43.5,112.7h3.2c0,0-0.4,1.9-0.5,3.5c-0.1,1.5,3,7.8,3,10.3s-3.9,3.7-3.9,3.7s-3.5-1-3.5-3.2
		s3.4-8.4,3-10.6C44.4,114.3,43.5,112.7,43.5,112.7z"/>
	<path id="bag_1_" class="st13" d="M59.1,112.7h3.2c0,0-0.4,1.9-0.5,3.5c-0.1,1.5,3,7.8,3,10.3s-3.9,3.7-3.9,3.7s-3.5-1-3.5-3.2
		s3.4-8.4,3-10.6C60,114.3,59.1,112.7,59.1,112.7z"/>
	<path id="bag_2_" class="st13" d="M27.9,112.7h3.2c0,0-0.4,1.9-0.5,3.5c-0.1,1.5,3,7.8,3,10.3s-3.9,3.7-3.9,3.7s-3.5-1-3.5-3.2
		s3.4-8.4,3-10.6C28.8,114.3,27.9,112.7,27.9,112.7z"/>
	
		<image style="overflow:visible;enable-background:new    ;" width="1340" height="893" id="logo" xlink:href="../../../Logo_4_Portfolio/Logo_white1.png"  transform="matrix(2.099664e-02 0 0 2.099664e-02 31.3073 34.375)">
	</image>
</g>
<g id="colors" class="st0">
	<rect x="-51.3" y="122.4" class="st14" width="19.3" height="19.3"/>
	<rect x="-51.3" y="8.2" class="st15" width="19.3" height="19.3"/>
	<rect x="-51.3" y="36.8" class="st16" width="19.3" height="19.3"/>
	<rect x="-51.3" y="65.3" class="st17" width="19.3" height="19.3"/>
	<rect x="-51.3" y="93.9" class="st18" width="19.3" height="19.3"/>
</g>
</svg>
